<svg id="svg" version="1.1" viewBox="0 0 300 147.11211778029448" width="300" height="147.11211778029448" xmlns="http://www.w3.org/2000/svg"><svg xmlns="http://www.w3.org/2000/svg"><defs><clipPath id="clip-1"><rect x="0" y="0" transform="scale(0.14648,0.14653)" width="2048" height="1004" fill="none"/></clipPath><linearGradient x1="206.93115" y1="188.95116" x2="93.35933" y2="-41.84065" gradientUnits="userSpaceOnUse" id="color-1"><stop offset="0" stop-color="#0a1215"/><stop offset="1" stop-color="#303a3e"/></linearGradient><linearGradient x1="41.45771" y1="116.45595" x2="64.61602" y2="91.35765" gradientUnits="userSpaceOnUse" id="color-2"><stop offset="0" stop-color="#b1782e"/><stop offset="1" stop-color="#e7c460"/></linearGradient><linearGradient x1="43.58057" y1="116.42635" x2="48.33911" y2="106.25246" gradientUnits="userSpaceOnUse" id="color-3"><stop offset="0" stop-color="#874d18"/><stop offset="1" stop-color="#a26624"/></linearGradient><linearGradient x1="35.93071" y1="99.9051" x2="33.0542" y2="87.47207" gradientUnits="userSpaceOnUse" id="color-4"><stop offset="0" stop-color="#e2bd59"/><stop offset="1" stop-color="#fffba3"/></linearGradient><linearGradient x1="76.04487" y1="96.13191" x2="70.85757" y2="99.75975" gradientUnits="userSpaceOnUse" id="color-5"><stop offset="0" stop-color="#864c1b"/><stop offset="1" stop-color="#ce983e"/></linearGradient><linearGradient x1="144.41763" y1="82.4811" x2="152.68506" y2="73.72339" gradientUnits="userSpaceOnUse" id="color-6"><stop offset="0" stop-color="#042a1d"/><stop offset="1" stop-color="#116841"/></linearGradient><linearGradient x1="148.44727" y1="74.25836" x2="141.89136" y2="84.32206" gradientUnits="userSpaceOnUse" id="color-7"><stop offset="0" stop-color="#17804e"/><stop offset="1" stop-color="#073325"/></linearGradient><linearGradient x1="123.02402" y1="56.72667" x2="114.23672" y2="41.19711" gradientUnits="userSpaceOnUse" id="color-8"><stop offset="0" stop-color="#117f4b"/><stop offset="1" stop-color="#33cb78"/></linearGradient><linearGradient x1="138.66577" y1="66.99008" x2="127.2334" y2="52.75523" gradientUnits="userSpaceOnUse" id="color-9"><stop offset="0" stop-color="#0a392b"/><stop offset="1" stop-color="#147d4c"/></linearGradient><linearGradient x1="136.8189" y1="60.53239" x2="136.10566" y2="64.04227" gradientUnits="userSpaceOnUse" id="color-10"><stop offset="0" stop-color="#041810"/><stop offset="1" stop-color="#063223"/></linearGradient><linearGradient x1="52.88628" y1="64.30719" x2="33.0583" y2="23.71699" gradientUnits="userSpaceOnUse" id="color-11"><stop offset="0" stop-color="#115e3d"/><stop offset="1" stop-color="#208d59"/></linearGradient><linearGradient x1="51.046" y1="60.09237" x2="56.24985" y2="53.72171" gradientUnits="userSpaceOnUse" id="color-12"><stop offset="0" stop-color="#d0d4be"/><stop offset="1" stop-color="#f8f3d4"/></linearGradient><linearGradient x1="223.99951" y1="90.72993" x2="209.69971" y2="57.36244" gradientUnits="userSpaceOnUse" id="color-13"><stop offset="0" stop-color="#062a20"/><stop offset="1" stop-color="#1a9c5b"/></linearGradient><linearGradient x1="233.05518" y1="95.49818" x2="227.03906" y2="87.64659" gradientUnits="userSpaceOnUse" id="color-14"><stop offset="0" stop-color="#b98033"/><stop offset="1" stop-color="#e5c060"/></linearGradient><linearGradient x1="241.98779" y1="96.17308" x2="232.97314" y2="91.52601" gradientUnits="userSpaceOnUse" id="color-15"><stop offset="0" stop-color="#71380e"/><stop offset="1" stop-color="#ae722b"/></linearGradient><linearGradient x1="225.2373" y1="60.67305" x2="221.99121" y2="54.99239" gradientUnits="userSpaceOnUse" id="color-16"><stop offset="0" stop-color="#248d5c"/><stop offset="1" stop-color="#2aab67"/></linearGradient><linearGradient x1="222.31201" y1="62.34418" x2="217.41357" y2="53.77798" gradientUnits="userSpaceOnUse" id="color-17"><stop offset="0" stop-color="#1d9257"/><stop offset="1" stop-color="#2cb06b"/></linearGradient><linearGradient x1="188.44043" y1="74.98176" x2="179.28369" y2="58.22226" gradientUnits="userSpaceOnUse" id="color-18"><stop offset="0" stop-color="#053e29"/><stop offset="1" stop-color="#229c5f"/></linearGradient><linearGradient x1="179.44336" y1="92.20853" x2="175.75488" y2="81.60576" gradientUnits="userSpaceOnUse" id="color-19"><stop offset="0" stop-color="#cc9c43"/><stop offset="1" stop-color="#f3d874"/></linearGradient><linearGradient x1="181.67139" y1="65.01271" x2="176.88574" y2="58.00628" gradientUnits="userSpaceOnUse" id="color-20"><stop offset="0" stop-color="#147649"/><stop offset="1" stop-color="#21975c"/></linearGradient><linearGradient x1="192.30469" y1="65.50519" x2="196.47949" y2="58.87195" gradientUnits="userSpaceOnUse" id="color-21"><stop offset="0" stop-color="#369266"/><stop offset="1" stop-color="#025933"/></linearGradient><linearGradient x1="258.47314" y1="79.60099" x2="257.77734" y2="75.71087" gradientUnits="userSpaceOnUse" id="color-22"><stop offset="0" stop-color="#023b26"/><stop offset="1" stop-color="#135e3f"/></linearGradient><linearGradient x1="258.53174" y1="73.02813" x2="257.89893" y2="79.36611" gradientUnits="userSpaceOnUse" id="color-23"><stop offset="0" stop-color="#054028"/><stop offset="1" stop-color="#1c6e4a"/></linearGradient><linearGradient x1="71.47998" y1="65.88762" x2="83.60039" y2="46.33167" gradientUnits="userSpaceOnUse" id="color-24"><stop offset="0" stop-color="#001110"/><stop offset="1" stop-color="#116a43"/></linearGradient><linearGradient x1="76.31543" y1="32.67809" x2="76.04824" y2="46.30559" gradientUnits="userSpaceOnUse" id="color-25"><stop offset="0" stop-color="#25b568"/><stop offset="1" stop-color="#0f633f"/></linearGradient><linearGradient x1="72.15161" y1="62.53291" x2="78.22778" y2="57.89272" gradientUnits="userSpaceOnUse" id="color-26"><stop offset="0" stop-color="#0c683e"/><stop offset="1" stop-color="#198450"/></linearGradient><linearGradient x1="90.18926" y1="94.26092" x2="99.62637" y2="56.03521" gradientUnits="userSpaceOnUse" id="color-27"><stop offset="0" stop-color="#042b20"/><stop offset="1" stop-color="#1fa25f"/></linearGradient><linearGradient x1="102.1084" y1="96.51654" x2="110.82715" y2="90.61594" gradientUnits="userSpaceOnUse" id="color-28"><stop offset="0" stop-color="#844412"/><stop offset="1" stop-color="#dfb04f"/></linearGradient><linearGradient x1="91.1124" y1="75.31496" x2="102.83467" y2="71.1945" gradientUnits="userSpaceOnUse" id="color-29"><stop offset="0" stop-color="#00471a"/><stop offset="1" stop-color="#3c7c60"/></linearGradient><linearGradient x1="256.00928" y1="96.53222" x2="247.25098" y2="85.66336" gradientUnits="userSpaceOnUse" id="color-30"><stop offset="0" stop-color="#d4a648"/><stop offset="1" stop-color="#fdeb89"/></linearGradient><linearGradient x1="272.29688" y1="97.76216" x2="260.74512" y2="91.03603" gradientUnits="userSpaceOnUse" id="color-31"><stop offset="0" stop-color="#6f340c"/><stop offset="1" stop-color="#ba8032"/></linearGradient><linearGradient x1="122.65854" y1="73.88618" x2="115.66509" y2="80.63576" gradientUnits="userSpaceOnUse" id="color-32"><stop offset="0" stop-color="#a1621d"/><stop offset="1" stop-color="#f3d76f"/></linearGradient><linearGradient x1="109.84058" y1="92.51931" x2="119.12124" y2="82.67994" gradientUnits="userSpaceOnUse" id="color-33"><stop offset="0" stop-color="#e0bc5f"/><stop offset="1" stop-color="#feef90"/></linearGradient><linearGradient x1="121.24761" y1="69.44908" x2="120.06973" y2="73.20894" gradientUnits="userSpaceOnUse" id="color-34"><stop offset="0" stop-color="#754016"/><stop offset="1" stop-color="#a76a25"/></linearGradient><linearGradient x1="60.77446" y1="56.40871" x2="64.7959" y2="36.32116" gradientUnits="userSpaceOnUse" id="color-35"><stop offset="0" stop-color="#0b5538"/><stop offset="1" stop-color="#2bcb74"/></linearGradient><linearGradient x1="66.71016" y1="65.01755" x2="66.44443" y2="56.75509" gradientUnits="userSpaceOnUse" id="color-36"><stop offset="0" stop-color="#0d3f2d"/><stop offset="1" stop-color="#0d583a"/></linearGradient><linearGradient x1="76.05923" y1="71.79101" x2="44.88794" y2="70.24208" gradientUnits="userSpaceOnUse" id="color-37"><stop offset="0" stop-color="#0a3027"/><stop offset="1" stop-color="#16804d"/></linearGradient><linearGradient x1="134.45771" y1="91.06943" x2="132.95845" y2="79.71132" gradientUnits="userSpaceOnUse" id="color-38"><stop offset="0" stop-color="#e2be5f"/><stop offset="1" stop-color="#fff89b"/></linearGradient><linearGradient x1="134.9937" y1="71.47949" x2="132.01392" y2="80.94405" gradientUnits="userSpaceOnUse" id="color-39"><stop offset="0" stop-color="#a56d25"/><stop offset="1" stop-color="#f4d874"/></linearGradient><linearGradient x1="134.3792" y1="96.53764" x2="133.1562" y2="90.83455" gradientUnits="userSpaceOnUse" id="color-40"><stop offset="0" stop-color="#a16121"/><stop offset="1" stop-color="#d7ab4e"/></linearGradient><linearGradient x1="134.86479" y1="98.57245" x2="133.99307" y2="94.87091" gradientUnits="userSpaceOnUse" id="color-41"><stop offset="0" stop-color="#8f5219"/><stop offset="1" stop-color="#ae732c"/></linearGradient><linearGradient x1="164.61621" y1="43.71237" x2="169.27002" y2="54.16656" gradientUnits="userSpaceOnUse" id="color-42"><stop offset="0" stop-color="#27ba6b"/><stop offset="1" stop-color="#107045"/></linearGradient><linearGradient x1="184.76074" y1="98.41068" x2="189.02051" y2="88.40603" gradientUnits="userSpaceOnUse" id="color-43"><stop offset="0" stop-color="#90521a"/><stop offset="1" stop-color="#c7923e"/></linearGradient><linearGradient x1="191.95459" y1="93.9201" x2="202.3623" y2="84.60251" gradientUnits="userSpaceOnUse" id="color-44"><stop offset="0" stop-color="#dbb054"/><stop offset="1" stop-color="#fae888"/></linearGradient><linearGradient x1="159.26367" y1="71.53224" x2="160.94238" y2="71.62323" gradientUnits="userSpaceOnUse" id="color-45"><stop offset="0" stop-color="#1a6e49"/><stop offset="1" stop-color="#0a442c"/></linearGradient><linearGradient x1="212.23242" y1="78.07639" x2="204.15088" y2="82.96508" gradientUnits="userSpaceOnUse" id="color-46"><stop offset="0" stop-color="#7e4111"/><stop offset="1" stop-color="#b77f32"/></linearGradient><linearGradient x1="204.92139" y1="83.80966" x2="201.15088" y2="86.08652" gradientUnits="userSpaceOnUse" id="color-47"><stop offset="0" stop-color="#bd8635"/><stop offset="1" stop-color="#e8c762"/></linearGradient><linearGradient x1="120.04175" y1="54.49215" x2="116.75215" y2="58.01346" gradientUnits="userSpaceOnUse" id="color-48"><stop offset="0" stop-color="#072519"/><stop offset="1" stop-color="#044129"/></linearGradient><linearGradient x1="46.85903" y1="66.32588" x2="31.60811" y2="59.10405" gradientUnits="userSpaceOnUse" id="color-49"><stop offset="0" stop-color="#15844e"/><stop offset="1" stop-color="#25b66a"/></linearGradient></defs><g clip-path="url(#clip-1)" fill="none" fill-rule="nonzero" stroke="none" stroke-width="1" stroke-linecap="butt" stroke-linejoin="miter" stroke-miterlimit="10" stroke-dasharray="" stroke-dashoffset="0" font-family="none" font-weight="none" font-size="none" text-anchor="none" style="mix-blend-mode: normal"><path d="M8.69001,0h283.1596h8.15039v6.7804v133.5776v6.75412h-7.80469h-284.58951h-7.60581v-7.91695v-130.90636c1.64158,-4.90949 3.72479,-6.84942 8.69001,-8.28882z" fill="url(#color-1)"/><path d="M0,139.19517c1.62346,4.14713 3.11509,5.95306 7.28473,7.77775l0.32108,0.1392h-7.60581z" fill="#d7d8d9"/><path d="M291.84961,0h8.15039v6.7804l-0.06592,-0.12853c-2.07129,-4.01141 -3.79395,-5.28745 -8.08447,-6.65187z" fill="#d7d8d9"/><path d="M300,140.358v6.75412h-7.80469c4.37402,-1.58146 5.58691,-2.54618 7.80469,-6.75412z" fill="#d7d8d9"/><path d="M69.18545,90.51498c-0.02256,-0.38566 0.11895,-1.8622 0.42539,-2.0603l0.13477,0.46874c1.60078,0.50346 3.59956,2.75484 4.48755,4.04866c2.81836,4.10712 4.15151,10.34752 1.25376,14.75634c-0.22749,0.34624 -0.36094,0.73116 -0.68423,1.00912c-2.87109,5.65546 -10.61851,9.50749 -16.73218,10.07923c-7.69893,1.74952 -19.79604,-3.1235 -24.57612,-9.29297c-0.84902,-0.90788 -2.81426,-3.5515 -3.25723,-4.61572c-3.22529,-4.41278 -4.01924,-10.78871 -4.5646,-16.01632c5.06631,0.14433 11.01943,0.11693 16.0771,0.04806c0.11865,2.90371 0.57246,4.60282 1.87559,7.17919c3.22339,5.186 7.40112,7.17465 13.41021,6.86225c4.21025,-0.72765 7.19297,-2.33108 9.73579,-5.84917c1.42178,-2.59161 1.78623,-3.6778 2.41421,-6.61711z" fill="url(#color-2)"/><path d="M33.49438,109.5238c0.07324,-0.11033 0.11748,-0.23371 0.23438,-0.27459c4.01777,-1.40387 9.30864,-5.99672 13.78843,-3.3386c3.50259,2.07832 6.63047,8.45792 8.31694,12.24928c0.45322,1.01909 1.13525,0.31415 2.23638,0.65688c-7.69893,1.74952 -19.79604,-3.1235 -24.57612,-9.29297z" fill="url(#color-3)"/><path d="M25.67256,88.89176c5.06631,0.14433 11.01943,0.11693 16.0771,0.04806c0.11865,2.90371 0.57246,4.60282 1.87559,7.17919c-0.61509,0.59123 -12.79556,4.82188 -14.81719,5.64037c0.30937,0.59402 1.48491,2.62575 1.4291,3.1487c-3.22529,-4.41278 -4.01924,-10.78871 -4.5646,-16.01632z" fill="url(#color-4)"/><path d="M69.18545,90.51498c-0.02256,-0.38566 0.11895,-1.8622 0.42539,-2.0603l0.13477,0.46874c1.60078,0.50346 3.59956,2.75484 4.48755,4.04866c2.81836,4.10712 4.15151,10.34752 1.25376,14.75634c-0.22749,0.34624 -0.36094,0.73116 -0.68423,1.00912c-0.12393,-0.75051 0.7771,-1.4213 0.79292,-2.07495c-0.56133,-1.13953 -5.88691,-10.55339 -6.44443,-11.02374l-0.24316,0.04073l0.03062,0.519l-0.16655,0.0759l-0.26792,-0.45643c-0.31802,0.13847 -0.43784,0.57189 -0.63501,0.95857l-0.17578,-0.03253l-0.51299,0.55519l-0.40913,-0.16719c1.42178,-2.59161 1.78623,-3.6778 2.41421,-6.61711z" fill="url(#color-5)"/><path d="M69.18545,90.51498l0.48428,0.35972c-0.78735,2.61695 -0.80933,3.37274 -1.97637,5.86939l-0.51299,0.55519l-0.40913,-0.16719c1.42178,-2.59161 1.78623,-3.6778 2.41421,-6.61711z" fill="#d4a956"/><path d="M69.18545,90.51498c-0.02256,-0.38566 0.11895,-1.8622 0.42539,-2.0603l0.13477,0.46874c-0.0022,0.49907 0.02622,1.50614 -0.07588,1.95129z" fill="#a26827"/><path d="M66.77124,97.13209l0.40913,0.16719c-0.64116,1.07448 -0.76714,1.25309 -1.14141,2.45285c1.13174,3.62388 2.58091,7.1304 3.50991,10.83208c0.17153,0.6831 0.57568,1.47669 0.78926,2.21591l-0.13872,0.15898c-3.64966,-1.72271 -6.15498,-4.70524 -9.20098,-7.32586c-0.91978,-0.79124 -1.77979,-1.80916 -2.75654,-2.52186c-0.6085,0.06257 -1.19458,0.12645 -1.80718,0.15268c0.25518,-0.15209 0.32124,-0.18067 0.60073,-0.2828c4.21025,-0.72765 7.19297,-2.33108 9.73579,-5.84917z" fill="#f3dd7d"/><path d="M102.52617,47.34094c8.84854,-4.00646 17.92163,-5.61283 26.48159,0.05099c5.91006,3.02005 10.19136,11.07898 13.92554,16.23142c0.25679,0.38404 1.33682,1.79773 1.43818,2.05884l2.38535,2.93887c2.40674,2.50735 4.37256,4.57571 6.60791,7.26652l0.8584,1.14012c2.55908,2.12917 5.95898,6.03042 8.74219,8.61676c-0.00439,0.56691 -0.11133,3.10078 0.14502,3.39266c0.00146,1.74117 0.41309,10.11147 -0.11133,10.97773c-0.46875,-0.19854 -1.61719,-1.43112 -1.91602,-1.89561c-7.78711,-8.10934 -15.60762,-16.19537 -23.30625,-24.38603c-1.04473,-1.1114 -5.2856,-3.71766 -6.86265,-3.59633c-0.51079,-0.33848 -0.59399,-0.41101 -1.19824,-0.44749l-0.13608,-0.10491l-0.3731,-0.00396c-0.16553,-0.99096 -0.01245,-4.53952 -0.00322,-5.80346c-0.66782,-1.18364 0.00674,-2.93565 -0.16978,-4.39344c0.03018,0.02667 -5.18818,-1.62761 -5.15933,-1.62746c-0.31011,0.78479 0.02417,3.98477 -0.39624,4.44838c-0.10269,-0.49028 -0.04556,-1.68754 -0.03604,-2.24229c0.02534,-0.85864 0.11309,-1.77633 0.17886,-2.63732c-0.5562,-0.23591 -1.10962,-0.47841 -1.66011,-0.7275c-3.82573,-1.80828 -8.27505,-6.41769 -12.24697,-7.79152c-1.9084,-1.15272 -4.93389,-1.67596 -7.1877,-1.46497z" fill="url(#color-6)"/><path d="M129.20347,63.77706c0.03267,-0.9111 0.02871,-2.00052 0.22412,-2.87718l0.08848,0.04616l0.15146,0.76003c-0.11924,0.65072 0.09038,2.47351 0.15513,3.22606l0.92344,0.3102l-0.09917,-0.08118c-0.55913,-0.46507 -0.96138,-1.2043 -0.65347,-1.92975c0.94497,1.94924 2.22114,1.77179 3.98936,2.85579c0.48472,0.29715 2.07935,1.39859 2.46255,1.4764c-2.27739,-2.35072 -4.71621,-2.14749 -6.53687,-4.56282c1.28218,0.58391 2.74058,1.50805 3.93398,1.88125c-0.14941,0.16484 -0.22031,0.12528 -0.49541,0.17876c0.77666,0.36119 1.52241,0.52867 2.34946,0.95799c11.24634,5.83862 18.51782,17.11263 26.13647,26.79287c0.06299,0.07868 0.04541,0.31708 0.03662,0.40939c-0.25488,-0.10872 -3.52002,-4.26947 -3.93311,-4.36911c0.00439,0.05685 0.11865,0.54259 0.20215,0.45247c-1.27441,1.39405 2.39941,2.17327 1.60254,3.79825c-0.62988,-0.63636 -1.2876,-1.61017 -1.9541,-2.03613l-0.3457,0.02051l-0.14062,0.16118c0.65186,0.76604 1.86035,2.05825 2.26904,2.87836c-0.06738,0.32793 -0.52881,1.004 -0.72949,1.3265c0.66943,0.8796 2.14014,1.82264 2.24268,2.66619c-7.78711,-8.10934 -15.60762,-16.19537 -23.30625,-24.38603c-1.04473,-1.1114 -5.2856,-3.71766 -6.86265,-3.59633c-0.51079,-0.33848 -0.59399,-0.41101 -1.19824,-0.44749l-0.13608,-0.10491l-0.3731,-0.00396c-0.16553,-0.99096 -0.01245,-4.53952 -0.00322,-5.80346z" fill="url(#color-7)"/><path d="M129.20347,63.77706c0.03267,-0.9111 0.02871,-2.00052 0.22412,-2.87718l0.08848,0.04616l0.15146,0.76003c-0.11924,0.65072 0.09038,2.47351 0.15513,3.22606c-0.05859,0.72662 -0.33589,4.06038 -0.24287,4.65235l-0.3731,-0.00396c-0.16553,-0.99096 -0.01245,-4.53952 -0.00322,-5.80346z" fill="#136640"/><path d="M102.52617,47.34094c8.84854,-4.00646 17.92163,-5.61283 26.48159,0.05099c0.29473,0.59534 2.48848,2.14763 3.14048,2.57402c-0.71572,2.16302 -7.84746,6.39513 -10.1874,6.63147c-3.82573,-1.80828 -8.27505,-6.41769 -12.24697,-7.79152c-1.9084,-1.15272 -4.93389,-1.67596 -7.1877,-1.46497z" fill="url(#color-8)"/><path d="M129.00776,47.39193c5.91006,3.02005 10.19136,11.07898 13.92554,16.23142l-0.42568,0.46229c-1.96582,-1.27038 -2.86333,-2.08448 -5.20869,-3.1191c-3.2231,-1.4216 -5.9499,-1.61516 -9.31816,-2.29489c-1.36523,-0.27547 -3.01831,-0.87388 -4.35981,-1.34672c-0.5562,-0.23591 -1.10962,-0.47841 -1.66011,-0.7275c2.33994,-0.23635 9.47168,-4.46846 10.1874,-6.63147c-0.652,-0.42639 -2.84575,-1.97869 -3.14048,-2.57402z" fill="url(#color-9)"/><path d="M123.62095,57.32493c1.3415,0.47284 2.99458,1.07125 4.35981,1.34672c3.36826,0.67973 6.09507,0.8733 9.31816,2.29489c2.34536,1.03462 3.24287,1.84872 5.20869,3.1191l0.42568,-0.46229c0.25679,0.38404 1.33682,1.79773 1.43818,2.05884c-0.12993,0.31166 -0.10811,0.4154 -0.02036,0.73776c-0.24053,-0.03502 -0.16963,0.02125 -0.31479,-0.10667c-1.4269,-0.57438 -2.70249,-1.67963 -3.97896,-2.29489c-3.36489,-1.6219 -5.38242,-2.57197 -9.02285,-2.72289c1.33052,1.22672 5.11948,1.29456 5.71318,1.83861l-0.10679,0.17539c-0.77153,-0.23781 -1.4748,-0.4683 -2.28281,-0.52075l-0.15015,0.1562c0.16216,0.21085 0.28447,0.36822 0.42451,0.59416c-0.53774,-0.3058 -4.52036,-2.44742 -4.83794,-2.42032c0.05405,0.26785 0.07017,0.37994 0.08687,0.65292l-0.21387,-0.06564l-0.15146,-0.76003l-0.08848,-0.04616c-0.19541,0.87667 -0.19146,1.96609 -0.22412,2.87718c-0.66782,-1.18364 0.00674,-2.93565 -0.16978,-4.39344c0.03018,0.02667 -5.18818,-1.62761 -5.15933,-1.62746c-0.31011,0.78479 0.02417,3.98477 -0.39624,4.44838c-0.10269,-0.49028 -0.04556,-1.68754 -0.03604,-2.24229c0.02534,-0.85864 0.11309,-1.77633 0.17886,-2.63732z" fill="url(#color-10)"/><path d="M142.9333,63.62335c0.25679,0.38404 1.33682,1.79773 1.43818,2.05884c-0.12993,0.31166 -0.10811,0.4154 -0.02036,0.73776c-0.24053,-0.03502 -0.16963,0.02125 -0.31479,-0.10667l-0.01289,-0.06418c-0.16406,-0.84751 -0.91421,-1.56036 -1.51582,-2.16346z" fill="#0a452e"/><path d="M154.22314,77.0277l-0.39404,0.00205c-1.28613,-0.80516 -10.0749,-8.67258 -10.33535,-9.65519c0.93354,-0.03326 2.28457,1.85517 3.26309,1.2465c2.40674,2.50735 4.37256,4.57571 6.60791,7.26652z" fill="#1e7e50"/><path d="M23.32354,27.63554c1.0645,0.47636 2.17412,0.95491 3.22119,1.46057c3.21636,0.8604 5.92705,1.51567 9.24697,1.94821c2.54443,0.33144 5.1876,0.45496 7.69922,0.78963c3.36753,0.03473 6.80669,1.29412 9.12832,3.69202c3.13945,3.24247 3.36782,7.09596 4.00181,11.3036c0.08042,0.53335 0.44854,1.26877 0.54448,1.75201c0.39521,1.99114 0.95625,3.45171 1.64282,5.34336l-0.07661,0.07942c-3.03867,-1.70512 -6.48149,-5.49018 -9.65068,-7.25626c-0.63618,-0.35459 -1.67563,-1.38921 -2.29482,-1.64812l-0.58184,0.14008c12.38423,10.55705 24.02505,18.85233 29.72695,34.94982l-0.39771,0.11781c-1.23091,-4.142 -6.2083,-10.36906 -9.07354,-13.64597c-0.73755,-0.97586 -3.86616,-4.17907 -4.09248,-4.70158c-0.47739,-0.10594 -2.56318,-1.45896 -3.1333,-1.77267c-5.42095,-2.98342 -11.84443,-2.73901 -17.73853,-4.01393c-4.91924,-0.89322 -10.75752,-5.38659 -11.86436,-10.5043c-1.55229,-7.17772 -2.31724,-11.52178 -6.30791,-18.03369z" fill="url(#color-11)"/><path d="M31.07915,34.45295l0.127,-0.40514c3.7144,2.3642 7.20366,4.99873 10.70083,7.67049c0.59282,0.45291 2.00566,1.70014 2.57915,1.99085l1.71826,1.5309c12.38423,10.55705 24.02505,18.85233 29.72695,34.94982l-0.39771,0.11781c-1.23091,-4.142 -6.2083,-10.36906 -9.07354,-13.64597c-0.73755,-0.97586 -3.86616,-4.17907 -4.09248,-4.70158c-1.20747,-1.74381 -7.28613,-6.80276 -9.12041,-8.40371z" fill="url(#color-12)"/><path d="M26.54473,29.09611c3.21636,0.8604 5.92705,1.51567 9.24697,1.94821c2.54443,0.33144 5.1876,0.45496 7.69922,0.78963l0.05537,0.1074l-0.17695,0.17319c-0.871,-0.14565 -3.51738,-0.24484 -4.6355,-0.34023c-2.98403,-0.21627 -5.97729,-0.60632 -8.88442,-1.32797c-0.89473,-0.22213 -3.02827,-0.46097 -3.30469,-1.35024z" fill="#409f6c"/><path d="M44.48613,43.70915c0.85942,0.0296 1.75488,0.76501 2.3001,1.39082l-0.58184,0.14008z" fill="#043423"/><path d="M29.44775,33.00088c0.71689,0.36529 1.1061,0.55196 1.7584,1.04693l-0.127,0.40514c-0.53276,-0.41379 -1.12632,-0.98861 -1.6314,-1.45207z" fill="#c2d6b3"/><path d="M214.41357,53.93872c1.13525,-0.00308 2.14893,0.0315 3.28125,0.08865l6.87012,0.04l-0.0293,1.72241c0.04688,2.03246 0.02197,4.12954 -0.02197,6.16552c-0.09082,4.1568 0.10254,8.36283 0.01611,12.51244c0.07178,2.1025 0.2417,6.37872 0.09961,8.45646c0.03516,0.88267 0.11426,2.07642 0.08057,2.93228c-0.00293,0.51108 -0.06885,2.05928 0.11865,2.43438l0.99609,0.0507l10.11768,-0.04703c1.25244,-0.00484 4.69629,-0.09934 5.77002,0.16777c-0.25488,1.50922 -0.13184,7.78463 -0.12012,9.67101c-1.93066,-0.16074 -4.7373,-0.05641 -6.73535,-0.05319c-3.02783,-0.01363 -6.05566,-0.05114 -9.0835,-0.11283l-0.84961,0.05802l-2.84912,0.02007c-1.14111,0.09129 -2.28369,0.1666 -3.4292,0.1307c-0.58447,0.21539 -3.52734,0.15063 -4.25977,0.01905l-0.10986,-0.06887c0.61963,-12.07697 -0.09521,-25.01844 0.19189,-37.1757c-0.08203,-2.27189 -0.04687,-4.7262 -0.0542,-7.01186z" fill="url(#color-13)"/><path d="M225.82471,88.34156l10.11768,-0.04703c1.25244,-0.00484 4.69629,-0.09934 5.77002,0.16777c-0.25488,1.50922 -0.13184,7.78463 -0.12012,9.67101c-1.93066,-0.16074 -4.7373,-0.05641 -6.73535,-0.05319c-3.02783,-0.01363 -6.05566,-0.05114 -9.0835,-0.11283l-0.84961,0.05802l-0.34131,-0.51284c-0.49951,-0.1307 -0.74707,0.04923 -1.3125,0.22184c-1.20703,-0.26214 -1.43408,-2.62692 -0.8584,-3.22855c0.58594,0.11253 0.21826,0.35078 0.65332,0.64559c0.01904,-0.52412 0.01025,-0.69497 0.16992,-1.20078l0.18164,0.0022l0.09521,0.44251c0.58301,-1.51391 1.26855,-2.94356 1.95117,-4.4119c0.33252,-0.71329 0.18311,-0.93747 0.36182,-1.64182z" fill="url(#color-14)"/><path d="M241.7124,88.4623c-0.25488,1.50922 -0.13184,7.78463 -0.12012,9.67101c-1.93066,-0.16074 -4.7373,-0.05641 -6.73535,-0.05319c-3.02783,-0.01363 -6.05566,-0.05114 -9.0835,-0.11283c0.28857,-0.23649 4.33154,-0.17129 4.96289,-0.19004c0.61963,-1.32152 1.24512,-2.7859 1.77393,-4.14258c0.62695,-1.60783 1.00635,-3.05932 1.84131,-4.58714c-1.01514,0.09524 -1.38867,0.14228 -2.40967,0.00396c1.9248,-0.24221 8.84033,0.05905 9.77051,-0.58918z" fill="url(#color-15)"/><path d="M224.62939,82.9242c0.03516,0.88267 0.11426,2.07642 0.08057,2.93228c-0.00293,0.51108 -0.06885,2.05928 0.11865,2.43438l0.99609,0.0507c-0.17871,0.70435 -0.0293,0.92854 -0.36182,1.64182c-0.68262,1.46834 -1.36816,2.89799 -1.95117,4.4119l-0.09521,-0.44251l-0.18164,-0.0022c-0.15967,0.50581 -0.15088,0.67666 -0.16992,1.20078c-0.43506,-0.29481 -0.06738,-0.53306 -0.65332,-0.64559c-0.57568,0.60164 -0.34863,2.96642 0.8584,3.22855c0.56543,-0.17261 0.81299,-0.35254 1.3125,-0.22184l0.34131,0.51284l-2.84912,0.02007c-1.14111,0.09129 -2.28369,0.1666 -3.4292,0.1307c-0.58447,0.21539 -3.52734,0.15063 -4.25977,0.01905c0.21094,-0.20777 0.22705,-0.74977 0.31348,-0.99301c0.99316,-2.83308 4.29932,-8.19388 6.3208,-10.21902c0.73682,-0.93044 2.66455,-2.57051 2.93262,-3.42329c0.08057,-0.11693 0.54346,-0.51504 0.67676,-0.63563z" fill="#653b16"/><path d="M221.23389,90.28728c0.74414,-0.82934 1.64355,-3.13712 3.18604,-2.76949c0.09961,0.27444 0.11279,0.40207 0.1582,0.6919l0.25049,0.08118l0.99609,0.0507c-0.17871,0.70435 -0.0293,0.92854 -0.36182,1.64182c-0.68262,1.46834 -1.36816,2.89799 -1.95117,4.4119l-0.09521,-0.44251l-0.18164,-0.0022c-0.15967,0.50581 -0.15088,0.67666 -0.16992,1.20078c-0.43506,-0.29481 -0.06738,-0.53306 -0.65332,-0.64559c-0.57568,0.60164 -0.34863,2.96642 0.8584,3.22855c0.56543,-0.17261 0.81299,-0.35254 1.3125,-0.22184l0.34131,0.51284l-2.84912,0.02007l-1.62012,-0.08879l-1.59375,0.04103c-0.42627,-0.12997 -0.48193,-0.06139 -0.65771,-0.371l0.41748,-0.53204c0.76318,-1.04532 2.90918,-3.76718 1.75781,-4.9536l-0.10986,-0.41027c0.37354,-0.51328 0.63867,-0.90055 0.96533,-1.44343z" fill="#a26827"/><path d="M218.62061,97.09458c1.25244,-0.22814 0.44531,0.47328 1.83398,0.86201l-1.59375,0.04103c-0.42627,-0.12997 -0.48193,-0.06139 -0.65771,-0.371z" fill="#945a20"/><path d="M221.02002,86.98312l0.14355,0.30096c0.58154,-0.06139 0.37061,-0.11795 0.89502,-0.53262c-0.1333,0.3798 -1.00635,2.13049 -0.9917,2.06147c-1.03711,1.74381 -5.23389,7.14446 -5.03906,9.04432c0.60938,0.55358 1.98193,0.11517 2.61768,0.31884c-0.58447,0.21539 -3.52734,0.15063 -4.25977,0.01905c0.21094,-0.20777 0.22705,-0.74977 0.31348,-0.99301c0.99316,-2.83308 4.29932,-8.19388 6.3208,-10.21902z" fill="#4e3c1a"/><path d="M220.37842,92.14098c1.15137,1.18642 -0.99463,3.90829 -1.75781,4.9536l-0.41748,0.53204c0.17578,0.30961 0.23145,0.24104 0.65771,0.371c-0.73682,0.02564 -1.12646,0.09934 -1.68604,-0.33481c0.14063,-0.90421 1.90137,-3.36775 2.30273,-4.30523c0.08203,-0.19019 0.69141,-0.83168 0.90088,-1.21661z" fill="#734319"/><path d="M223.22021,86.75146c0.62109,-0.32924 0.54932,-1.14701 1.48975,-0.89498c-0.00293,0.51108 -0.06885,2.05928 0.11865,2.43438l-0.25049,-0.08118c-0.04541,-0.28983 -0.05859,-0.41745 -0.1582,-0.6919c-1.54248,-0.36763 -2.44189,1.94015 -3.18604,2.76949c0.37354,-1.28577 1.21143,-2.46427 1.98633,-3.53582z" fill="#734319"/><path d="M222.89648,55.56369c0.13477,-0.84663 0.42773,-1.94821 1.38135,-0.88165c0.11572,0.40133 0.11719,0.72648 0.1377,1.13836l0.12012,-0.03062c0.04688,2.03246 0.02197,4.12954 -0.02197,6.16552c-0.09082,4.1568 0.10254,8.36283 0.01611,12.51244c-0.25195,0.34639 -0.2373,7.19736 -0.25781,8.19579c-0.33252,0.49716 -2.24121,2.13327 -2.7876,2.63688c0.00586,-4.45835 0.11572,-9.14322 -0.35156,-13.56787c-0.21094,-2.00799 0.51416,-9.18308 -0.05713,-10.68951c0.00439,-2.00418 -0.00146,-3.95825 0.10107,-5.96039c0.33545,3.10313 0.09521,7.04995 0.42627,10.24656c0.09521,0.92692 0.08057,2.44523 0.27832,3.30958c0.11279,-1.73164 -0.13623,-3.89027 -0.10693,-5.73869c0.1875,-0.23356 0.29883,-0.34815 0.4248,-0.61819l0.18018,-0.03209c-0.00879,0.84179 -0.06592,6.29637 0.05566,6.51293c0.05713,-0.81307 0.10693,-1.60065 0.21533,-2.40962c-0.19482,-3.23017 0.01758,-7.8113 0.08203,-11.12264z" fill="#0b5536"/><path d="M222.65039,66.35313c-0.19482,-3.23017 0.01758,-7.8113 0.08203,-11.12264l0.16406,0.3332c0.05859,3.69993 0.37207,7.96501 0.35889,11.49262c-0.271,2.94444 0.88184,14.17405 -0.46436,16.26409l-0.17285,-0.10711c-0.51855,-1.79084 -0.07031,-4.12075 -0.07324,-6.0187c-0.00732,-3.43281 0.34424,-7.46008 0.10547,-10.84146z" fill="#0b5435"/><path d="M222.89648,55.56369c0.13477,-0.84663 0.42773,-1.94821 1.38135,-0.88165c0.11572,0.40133 0.11719,0.72648 0.1377,1.13836c0.1084,2.58003 -0.03369,5.44652 -0.02197,8.06596c0.00439,0.87359 0.01172,3.89334 -0.08643,4.66905c-0.03955,-1.57926 0.05713,-5.79745 -0.10547,-6.96526l-0.28125,-0.10843c-0.38232,0.18169 -0.57275,0.31005 -0.6123,0.78553c-0.06445,0.76706 0.32959,6.66767 0.17285,6.79983c-0.04541,-0.53687 -0.09668,-1.52314 -0.22559,-2.01078c0.01318,-3.52761 -0.30029,-7.79269 -0.35889,-11.49262z" fill="url(#color-16)"/><path d="M217.69482,54.02736l6.87012,0.04l-0.0293,1.72241l-0.12012,0.03062c-0.02051,-0.41188 -0.02197,-0.73703 -0.1377,-1.13836c-0.95361,-1.06656 -1.24658,0.03502 -1.38135,0.88165l-0.16406,-0.3332c-0.06445,3.31134 -0.27686,7.89248 -0.08203,11.12264c-0.1084,0.80897 -0.1582,1.59655 -0.21533,2.40962c-0.12158,-0.21657 -0.06445,-5.67114 -0.05566,-6.51293l-0.18018,0.03209c-0.12598,0.27005 -0.2373,0.38463 -0.4248,0.61819c-0.0293,1.84843 0.21973,4.00705 0.10693,5.73869c-0.19775,-0.86436 -0.18311,-2.38266 -0.27832,-3.30958c-0.33105,-3.19661 -0.09082,-7.14344 -0.42627,-10.24656c-0.10254,2.00213 -0.09668,3.9562 -0.10107,5.96039c-0.07324,1.33778 -0.20801,2.4779 -0.40576,3.79942c-0.08057,0.54962 -0.05713,1.61281 -0.16113,2.0943c-0.24609,-1.51801 0.24023,-3.76792 0.35596,-5.30805c0.07617,-1.02759 0.0498,-2.06045 0.03369,-3.09038c-0.35596,0.69541 -0.56543,1.01806 -1.021,1.65545c0.08057,2.17489 0.39111,4.91038 0.23584,6.94607c-0.07031,-1.24679 -0.12451,-2.55688 -0.22705,-3.7959c-0.23877,-0.25334 -0.30615,-0.43518 -0.45703,-0.73981l-0.06885,0.51489c-0.13623,-0.76941 -0.10254,-3.41318 -0.31348,-3.71751l-0.25635,0.16176c-0.49805,0.92326 -0.41748,2.6785 -0.4292,3.78184c-0.09082,-1.44196 0.06885,-7.80691 -0.30469,-8.61148l-0.17285,0.11121c-0.19189,1.11301 -0.04102,5.92112 -0.1377,7.57539c-0.01758,-0.59812 0.00146,-1.29881 -0.19336,-1.85326c-0.25488,0.12982 -0.52441,0.18037 -0.8042,0.25071c-0.12744,0.29466 0.02051,3.97657 0.02637,4.49556c-0.62695,-3.35178 0.28418,-7.99241 -0.375,-10.9452c0.36914,-0.24455 0.84229,-0.26917 1.29492,-0.34067z" fill="url(#color-17)"/><path d="M219.4292,62.60412c-0.0293,-1.86322 -0.13037,-5.78294 0.14795,-7.51327c0.19189,0.47709 0.20508,7.0035 0.30908,8.25308c-0.23877,-0.25334 -0.30615,-0.43518 -0.45703,-0.73981z" fill="#1e7e50"/><path d="M214.46777,60.95057c0.10254,1.09426 -0.09668,2.09972 0.49951,2.82737l-0.06152,31.53064c0.71924,-1.23053 1.87939,-3.34153 2.52832,-4.41131c1.01074,-1.66937 4.89258,-6.49271 6.51855,-7.33744c-0.26807,0.85278 -2.1958,2.49285 -2.93262,3.42329c-2.02148,2.02514 -5.32764,7.38594 -6.3208,10.21902c-0.08643,0.24323 -0.10254,0.78523 -0.31348,0.99301l-0.10986,-0.06887c0.61963,-12.07697 -0.09521,-25.01844 0.19189,-37.1757z" fill="#1e7e50"/><path d="M214.41357,53.93872c1.13525,-0.00308 2.14893,0.0315 3.28125,0.08865c-0.45264,0.0715 -0.92578,0.09612 -1.29492,0.34067c-0.50977,0.79329 -0.10107,3.72498 -0.3999,4.8547c-0.06592,-0.32939 -0.08789,-0.51826 -0.11133,-0.85351l-0.4541,0.00381c-0.4292,0.45145 -0.32812,4.47139 -0.46729,5.40491c-0.59619,-0.72765 -0.39697,-1.73311 -0.49951,-2.82737c-0.08203,-2.27189 -0.04687,-4.7262 -0.0542,-7.01186z" fill="#409f6c"/><path d="M167.50049,78.97342c-0.76172,-6.61961 0.42627,-11.19561 4.24658,-16.59598c6.09082,-8.61119 15.55811,-10.98989 25.37695,-7.9357c2.62939,0.56662 6.34717,3.36893 8.28955,5.15449c-0.98437,1.11726 -1.53955,2.03803 -2.36572,3.25976c-0.47607,0.69336 -0.73096,1.05938 -1.30811,1.68886c-0.81299,0.98612 -1.61865,1.97766 -2.41699,2.97477c-6.92578,-7.12541 -17.30273,-4.42655 -21.30322,4.25248c-0.42773,1.53486 -0.58301,2.59864 -0.54199,4.18669c0.00586,0.25686 0.04541,1.52841 0.02783,1.68036c0.17432,1.31844 0.36768,1.6849 0.71631,2.91382c1.24219,3.04217 2.05957,4.04676 4.69922,6.10559c0.46436,0.70376 0.90088,0.82992 1.6875,1.15638c-2.47852,0.87886 -4.24805,2.68729 -6.35303,4.19944c-0.46582,0.33525 -2.0083,1.31683 -2.16211,1.72827c0.43359,0.63153 0.89795,0.16543 1.12646,0.75241c-0.18896,0.18286 -0.18018,0.1962 -0.44531,0.26697c-2.28809,-1.65662 -3.66943,-3.19529 -5.18994,-5.52711c-0.19482,-0.3228 -0.36621,-0.55958 -0.58594,-0.86011c-0.63721,-0.48222 -1.17627,-1.50761 -1.53076,-2.22514l-0.20068,-0.38551c-0.7251,-1.39581 -1.88672,-5.21442 -1.7666,-6.79075z" fill="url(#color-18)"/><path d="M178.01953,71.7721c-0.42773,1.53486 -0.58301,2.59864 -0.54199,4.18669c0.00586,0.25686 0.04541,1.52841 0.02783,1.68036c0.17432,1.31844 0.36768,1.6849 0.71631,2.91382c1.24219,3.04217 2.05957,4.04676 4.69922,6.10559c0.46436,0.70376 0.90088,0.82992 1.6875,1.15638c-2.47852,0.87886 -4.24805,2.68729 -6.35303,4.19944c-0.46582,0.33525 -2.0083,1.31683 -2.16211,1.72827c0.43359,0.63153 0.89795,0.16543 1.12646,0.75241c-0.18896,0.18286 -0.18018,0.1962 -0.44531,0.26697c-2.28809,-1.65662 -3.66943,-3.19529 -5.18994,-5.52711c-0.19482,-0.3228 -0.36621,-0.55958 -0.58594,-0.86011c-0.63721,-0.48222 -1.17627,-1.50761 -1.53076,-2.22514c0.55957,-0.72076 0.44385,-2.44288 0.66943,-3.05741c0.54639,-1.48533 1.26123,-3.72938 2.11816,-5.00943c0.92578,-1.32826 4.48389,-5.75144 5.76416,-6.31073z" fill="url(#color-19)"/><path d="M178.01953,71.7721c-0.42773,1.53486 -0.58301,2.59864 -0.54199,4.18669c0.00586,0.25686 0.04541,1.52841 0.02783,1.68036l-0.21826,-0.29159c-0.83057,0.07107 -2.62939,2.00829 -3.17432,2.72319c-2.12549,2.79103 -4.08691,4.60341 -3.11426,8.30407c-0.63721,-0.48222 -1.17627,-1.50761 -1.53076,-2.22514c0.55957,-0.72076 0.44385,-2.44288 0.66943,-3.05741c0.54639,-1.48533 1.26123,-3.72938 2.11816,-5.00943c0.92578,-1.32826 4.48389,-5.75144 5.76416,-6.31073z" fill="#4e3c1a"/><path d="M170.99854,88.37482c-0.97266,-3.70066 0.98877,-5.51304 3.11426,-8.30407c0.54492,-0.7149 2.34375,-2.65212 3.17432,-2.72319l0.21826,0.29159c0.17432,1.31844 0.36768,1.6849 0.71631,2.91382c-0.8833,0.06989 -3.32666,2.99089 -4.00781,3.76352l0.24902,-0.4324c-0.74561,0.95564 -1.10742,1.47654 -1.72119,2.5201l-0.12891,-0.04191l-0.12305,-0.43035l-0.06006,0.12264c-0.66064,1.33764 -1.12061,0.58713 -0.9624,2.00389c0.23145,-0.28983 0.38818,-0.47123 0.57568,-0.79827l0.04541,0.05114c-0.17432,0.81044 -0.47754,1.22921 -0.50391,1.92359c-0.19482,-0.3228 -0.36621,-0.55958 -0.58594,-0.86011z" fill="#d4a956"/><path d="M186.96973,60.94867c-0.42627,0.33804 -0.54639,0.3058 -0.64014,0.73981c0.45996,0.24323 0.6958,0.07824 1.19971,0.09085l0.71777,-0.05817c1.82373,-0.16807 4.56445,-0.37994 6.34863,-0.02139c2.28076,0.30389 5.41992,1.25368 7.14404,2.8451c-0.81299,0.98612 -1.61865,1.97766 -2.41699,2.97477c-6.92578,-7.12541 -17.30273,-4.42655 -21.30322,4.25248c-1.28027,0.55929 -4.83838,4.98247 -5.76416,6.31073c-0.54199,-1.42321 0.7793,-2.24961 1.14111,-3.75532c-0.21826,-0.63812 0.0249,-1.07623 0.23877,-1.7312c0.08789,-0.12396 0.09814,-0.14066 0.15674,-0.28382c0.84082,-2.06997 2.76709,-4.16061 4.20557,-5.8754c0.2417,-0.28895 0.74561,-0.61966 1.08838,-0.97982l0.05713,-0.06257c0.16553,-0.00088 0.29297,0.01348 0.45557,0.02784c1.02246,-1.6153 5.51074,-3.93349 7.37109,-4.47388z" fill="#0b5536"/><path d="M186.96973,60.94867c-0.42627,0.33804 -0.54639,0.3058 -0.64014,0.73981c0.45996,0.24323 0.6958,0.07824 1.19971,0.09085l0.71777,-0.05817c0.41748,0.30888 3.76318,0.14404 5.04492,0.31518l-0.10693,0.0167c-0.7251,0.10667 -1.12646,-0.04161 -1.75195,-0.04059c-1.29639,0.0019 -4.72559,0.45262 -5.79639,1.06261l-0.12305,0.26551c0.43652,0.09949 5.57227,-1.79406 6.37646,-0.91974l0.16699,-0.10491l-0.09521,-0.02359c-0.33105,0.25041 -6.31787,0.98568 -7.82666,1.82762c-4.20117,2.3453 -8.40381,6.01299 -10.73877,10.20759c-0.21826,-0.63812 0.0249,-1.07623 0.23877,-1.7312c0.08789,-0.12396 0.09814,-0.14066 0.15674,-0.28382c0.84082,-2.06997 2.76709,-4.16061 4.20557,-5.8754c0.2417,-0.28895 0.74561,-0.61966 1.08838,-0.97982l0.05713,-0.06257c0.16553,-0.00088 0.29297,0.01348 0.45557,0.02784c1.02246,-1.6153 5.51074,-3.93349 7.37109,-4.47388z" fill="#1e7e50"/><path d="M186.96973,60.94867c-0.42627,0.33804 -0.54639,0.3058 -0.64014,0.73981c0.45996,0.24323 0.6958,0.07824 1.19971,0.09085c-1.29346,0.44705 -2.04053,0.69219 -3.24023,1.25177c-0.80566,0.37555 -4.16748,2.27189 -4.69043,2.39145c1.02246,-1.6153 5.51074,-3.93349 7.37109,-4.47388z" fill="#409f6c"/><path d="M167.50049,78.97342c-0.76172,-6.61961 0.42627,-11.19561 4.24658,-16.59598c6.09082,-8.61119 15.55811,-10.98989 25.37695,-7.9357c-0.59326,0.27532 -0.70898,-0.06857 -1.41797,0.00396c-0.35303,0.20909 -1.40186,0.27444 -1.83984,0.25129c-4.84277,-0.25701 -8.59863,-0.25144 -12.90381,2.32258c1.08252,-0.30155 1.90137,-0.75109 2.90332,-1.25324c-1.18359,1.07667 -2.42285,1.56519 -3.75146,2.34823c-1.77979,1.04971 -5.0625,3.63121 -6.14502,5.34073l0.01611,0.27034c0.30762,0.02564 0.4834,0.03268 0.79102,0.02022c-0.5874,0.74303 -1.30811,0.86465 -1.58203,1.25119c-1.32275,1.8685 -2.37158,4.02522 -3.53906,5.99614c-0.479,0.84033 -1.40186,4.73001 -1.97168,5.42132c-0.0249,0.69263 -0.09229,2.26471 0.03809,2.90722l0.11279,0.01465l0.09814,0.24382l-0.07471,0.16821l-0.09814,-0.00044l0.0835,-0.16587c-0.10254,-0.23723 -0.15967,-0.47724 -0.34277,-0.60867z" fill="url(#color-20)"/><path d="M167.50049,78.97342c-0.76172,-6.61961 0.42627,-11.19561 4.24658,-16.59598c6.09082,-8.61119 15.55811,-10.98989 25.37695,-7.9357c-0.59326,0.27532 -0.70898,-0.06857 -1.41797,0.00396c-0.38672,-0.21657 -1.27881,-0.32089 -1.76074,-0.39445c-3.35742,-0.51182 -7.09277,-0.5672 -10.37549,0.40427c-9.21094,2.7248 -16.42676,12.32679 -15.88623,21.95897c-0.0249,0.69263 -0.09229,2.26471 0.03809,2.90722l0.11279,0.01465l0.09814,0.24382l-0.07471,0.16821l-0.09814,-0.00044l0.0835,-0.16587c-0.10254,-0.23723 -0.15967,-0.47724 -0.34277,-0.60867z" fill="#33b26f"/><path d="M186.96973,60.94867c1.24951,-0.542 3.14063,-0.75783 3.50977,-0.95769l-0.18604,-0.29378c2.99268,-0.64867 7.19971,0.11151 9.89355,1.57428c0.38525,0.2088 2.64258,1.52138 2.86084,1.58453c-0.47607,0.69336 -0.73096,1.05938 -1.30811,1.68886c-1.72412,-1.59142 -4.86328,-2.5412 -7.14404,-2.8451c-1.78418,-0.35855 -4.5249,-0.14667 -6.34863,0.02139l-0.71777,0.05817c-0.50391,-0.0126 -0.73975,0.15239 -1.19971,-0.09085c0.09375,-0.43401 0.21387,-0.40177 0.64014,-0.73981z" fill="url(#color-21)"/><path d="M169.26709,85.76417c0.43359,-0.75036 0.29443,-3.82711 0.55518,-4.53894c0.57861,-1.57472 2.74072,-7.97834 3.81299,-8.62892c-0.21387,0.65497 -0.45703,1.09308 -0.23877,1.7312c-0.36182,1.5057 -1.68311,2.33211 -1.14111,3.75532c-0.85693,1.28005 -1.57178,3.5241 -2.11816,5.00943c-0.22559,0.61453 -0.10986,2.33665 -0.66943,3.05741z" fill="#136640"/><path d="M185.95605,57.05152c0.13477,-0.00586 0.36768,0.01143 0.51123,0.01714c-2.896,0.76912 -2.71289,1.14173 -5.23096,2.70663c-0.17285,-0.21554 -0.19629,-0.17202 -0.49219,-0.29378l-0.02197,-0.12367c1.12354,-0.87212 3.85986,-1.90425 5.23389,-2.30632z" fill="#409f6c"/><path d="M246.20801,54.05125c1.68604,-0.23488 5.39355,-0.1159 7.24219,-0.09685l12.97705,0.06066c1.53223,0.00249 4.12646,0.12601 5.55615,0.03531l0.54053,0.06198c0.31787,0.56574 0.16113,1.18408 0.09375,1.87231c0.00732,1.24532 -0.01318,2.61109 0.04688,3.84572l0.03369,0.89659c-0.01465,0.82084 -0.06738,1.52929 0.13477,2.32844l-0.18164,0.50332c-0.13477,0.06286 -15.69727,0.23708 -17.06836,0.04967v0.95989l0.00293,0.56706l0.00586,1.49706l-0.00439,0.60603l0.04688,1.37251c0.11572,0.74435 0.09229,1.58395 0.09521,2.34383c1.5791,-0.02125 13.82227,-0.19605 14.39063,0.15136c0.00146,0.57805 -0.0249,1.42716 0.02344,1.98176l-0.05713,0.40778l0.01465,0.7949c0.01904,0.34463 0.03076,0.87608 0.10254,1.19814l-0.104,0.31752l0.0249,2.30266l-0.01904,2.05517c-2.33936,-0.01099 -4.85596,0.07238 -7.20996,0.10008c-1.85156,0.02183 -5.70557,-0.08542 -7.38428,0.18843c0.01318,1.19287 0.04834,2.38559 0.10254,3.57729c-2.0083,0.01919 -8.47998,1.01469 -9.30615,0.76018c-0.271,-0.29598 -0.17432,-0.28192 -0.49219,-0.33965c-0.09521,-0.61482 -0.02783,-3.60014 -0.02783,-4.44956l0.00439,-10.36789l-0.01172,-10.37067c-0.00146,-1.12224 -0.07324,-4.10771 0.06299,-5.09867z" fill="#1e7e50"/><path d="M245.81543,84.45041c-0.09521,-0.61482 -0.02783,-3.60014 -0.02783,-4.44956l0.00439,-10.36789l-0.01172,-10.37067c-0.00146,-1.12224 -0.07324,-4.10771 0.06299,-5.09867l0.36475,-0.11239c2.04053,0.14535 4.09131,-0.02359 6.16992,0.13202c-1.60986,0.03912 -4.72412,-0.06213 -6.10986,0.10872c-0.0498,0.27005 0.04688,3.43252 0.12305,3.81041c-0.0293,1.56636 -0.07178,3.13229 -0.12598,4.69806l0.01611,0.26067l-0.02197,1.5309c0.01465,0.76018 0.01611,1.55728 0.05713,2.31365c-0.03809,1.47434 -0.19482,5.00928 -0.03662,6.40773l0.07031,-0.03385l0.07324,-0.22389c1.29346,-0.6453 7.71826,-1.90044 9.30615,-2.10089c1.5791,-0.02125 13.82227,-0.19605 14.39063,0.15136c0.00146,0.57805 -0.0249,1.42716 0.02344,1.98176l-0.05713,0.40778l0.01465,0.7949c0.01904,0.34463 0.03076,0.87608 0.10254,1.19814l-0.104,0.31752l0.0249,2.30266l-0.01904,2.05517c-2.33936,-0.01099 -4.85596,0.07238 -7.20996,0.10008c-1.85156,0.02183 -5.70557,-0.08542 -7.38428,0.18843c0.01318,1.19287 0.04834,2.38559 0.10254,3.57729c-2.0083,0.01919 -8.47998,1.01469 -9.30615,0.76018c-0.271,-0.29598 -0.17432,-0.28192 -0.49219,-0.33965z" fill="url(#color-22)"/><path d="M255.72949,70.95478c1.5791,-0.02125 13.82227,-0.19605 14.39063,0.15136c0.00146,0.57805 -0.0249,1.42716 0.02344,1.98176l-0.05713,0.40778l0.01465,0.7949c-0.76904,-0.12587 -1.33447,0.00366 -2.10205,0.01319c-3.41455,0.04205 -6.6167,0.502 -10.05322,0.4576c-0.89209,0.1014 -2.24414,0.29247 -3.09961,0.28089c-1.83545,0.67886 -6.10693,1.11448 -7.53662,2.26222l0.02197,0.16616l0.2417,0.13524c-0.55957,0.29657 -0.87451,0.5927 -1.33154,0.08176l0.00146,-1.61765c-0.02051,-0.91901 -0.00732,-1.83846 0.03662,-2.75659l0.07031,-0.03385l0.07324,-0.22389c1.29346,-0.6453 7.71826,-1.90044 9.30615,-2.10089z" fill="#0b5435"/><path d="M246.3501,73.27956l0.86865,0.04923c-1.10596,0.37437 -0.81738,0.94612 -0.8833,2.08931c1.5791,-0.4239 3.79248,-0.84824 5.1958,-1.26642c4.30371,-0.58068 6.05273,-0.6135 10.35791,-0.59592c1.30811,-0.21627 6.87305,-0.20792 8.19727,-0.06008l0.01465,0.7949c-0.76904,-0.12587 -1.33447,0.00366 -2.10205,0.01319c-3.41455,0.04205 -6.6167,0.502 -10.05322,0.4576c-0.89209,0.1014 -2.24414,0.29247 -3.09961,0.28089c-1.83545,0.67886 -6.10693,1.11448 -7.53662,2.26222l0.02197,0.16616l0.2417,0.13524c-0.55957,0.29657 -0.87451,0.5927 -1.33154,0.08176l0.00146,-1.61765c-0.02051,-0.91901 -0.00732,-1.83846 0.03662,-2.75659z" fill="#136640"/><path d="M246.24316,76.07001c1.8999,-1.04209 10.25684,-1.94997 12.79834,-1.92652c-1.08545,0.34141 -3.36914,0.44822 -4.19531,0.89879c-1.83545,0.67886 -6.10693,1.11448 -7.53662,2.26222l0.02197,0.16616l0.2417,0.13524c-0.55957,0.29657 -0.87451,0.5927 -1.33154,0.08176z" fill="#0b5536"/><path d="M261.88916,73.55577c1.30811,-0.21627 6.87305,-0.20792 8.19727,-0.06008l0.01465,0.7949c-0.76904,-0.12587 -1.33447,0.00366 -2.10205,0.01319c-3.41455,0.04205 -6.6167,0.502 -10.05322,0.4576c-0.89209,0.1014 -2.24414,0.29247 -3.09961,0.28089c0.82617,-0.45057 3.10986,-0.55738 4.19531,-0.89879c2.90625,-0.56676 7.76514,0.24807 10.60547,-0.3184c-2.04346,-0.81029 -5.89014,0.41775 -7.75781,-0.26931z" fill="#0b5435"/><path d="M255.72949,70.95478c1.5791,-0.02125 13.82227,-0.19605 14.39063,0.15136c-1.44141,0.47855 -11.75098,0.02769 -14.12842,0.32104c-3.0835,0.38067 -5.76562,1.18847 -8.77295,1.90161l-0.86865,-0.04923l0.07324,-0.22389c1.29346,-0.6453 7.71826,-1.90044 9.30615,-2.10089z" fill="#27895a"/><path d="M251.53125,74.15169l-0.06152,-0.11444l0.31787,-0.31972c6.20801,-0.88047 12.08936,-0.62435 18.35596,-0.62962l-0.05713,0.40778c-1.32422,-0.14784 -6.88916,-0.1562 -8.19727,0.06008c-4.30518,-0.01758 -6.0542,0.01524 -10.35791,0.59592z" fill="#0a452e"/><path d="M245.81543,84.45041c-0.09521,-0.61482 -0.02783,-3.60014 -0.02783,-4.44956l0.00439,-10.36789l-0.01172,-10.37067c-0.00146,-1.12224 -0.07324,-4.10771 0.06299,-5.09867l0.36475,-0.11239c2.04053,0.14535 4.09131,-0.02359 6.16992,0.13202c-1.60986,0.03912 -4.72412,-0.06213 -6.10986,0.10872c-0.0498,0.27005 0.04688,3.43252 0.12305,3.81041c-0.0293,1.56636 -0.07178,3.13229 -0.12598,4.69806l0.01611,0.26067l-0.02197,1.5309c0.01465,0.76018 0.01611,1.55728 0.05713,2.31365c-0.03809,1.47434 -0.19482,5.00928 -0.03662,6.40773c-0.04395,0.91813 -0.05713,1.83758 -0.03662,2.75659l-0.00146,1.61765c-0.01611,1.09572 -0.08057,2.63454 0,3.69275c-0.01904,0.45833 -0.09375,0.90157 0.1626,1.27536c0.51855,0.11839 1.11914,-0.47489 1.66406,-0.75593c0.95654,-0.49892 2.09326,-1.03389 3.11719,-1.358c0.86865,-0.27532 2.35986,-1.00751 3.1333,-0.29188c0.11865,0.11019 0.25928,0.05524 0.43213,0.0463l0.76025,0.15634c0.01318,1.19287 0.04834,2.38559 0.10254,3.57729c-2.0083,0.01919 -8.47998,1.01469 -9.30615,0.76018c-0.271,-0.29598 -0.17432,-0.28192 -0.49219,-0.33965z" fill="#409f6c"/><path d="M256.24512,78.21793c0.62695,-0.28719 9.97705,-0.11341 11.27197,-0.0951c0.86865,-0.0318 1.73877,-0.03634 2.60742,-0.01392l-0.01904,2.05517c-2.33936,-0.01099 -4.85596,0.07238 -7.20996,0.10008c-1.85156,0.02183 -5.70557,-0.08542 -7.38428,0.18843l-0.76025,-0.15634c-0.17285,0.00894 -0.31348,0.06389 -0.43213,-0.0463c-0.77344,-0.71563 -2.26465,0.01656 -3.1333,0.29188c-1.02393,0.32412 -2.16064,0.85908 -3.11719,1.358c-0.54492,0.28104 -1.14551,0.87432 -1.66406,0.75593c-0.25635,-0.37379 -0.18164,-0.81703 -0.1626,-1.27536c0.104,-0.32294 0.15674,-0.76003 0.2124,-1.1029l-0.04687,-0.07927c0.30908,0.03854 8.92822,-1.73941 9.83789,-1.9803z" fill="#0a452e"/><path d="M246.4541,80.2775c0.07764,0.10462 0.15674,0.26463 0.25195,0.25876c2.06689,-0.12718 4.44873,-1.17485 6.52734,-1.46878c0.54053,-0.07649 2.02148,0.09129 2.62939,0.10066l-1.11182,1.1281c-0.17285,0.00894 -0.31348,0.06389 -0.43213,-0.0463c-0.77344,-0.71563 -2.26465,0.01656 -3.1333,0.29188c-1.02393,0.32412 -2.16064,0.85908 -3.11719,1.358c-0.54492,0.28104 -1.14551,0.87432 -1.66406,0.75593c-0.25635,-0.37379 -0.18164,-0.81703 -0.1626,-1.27536c0.104,-0.32294 0.15674,-0.76003 0.2124,-1.1029z" fill="#0b5435"/><path d="M256.24512,78.21793c0.62695,-0.28719 9.97705,-0.11341 11.27197,-0.0951c-1.1792,0.65995 -9.56104,0.14184 -11.27197,0.0951z" fill="#0b5536"/><path d="M257.9458,74.76138c3.43652,0.0444 6.63867,-0.41555 10.05322,-0.4576c0.76758,-0.00952 1.33301,-0.13905 2.10205,-0.01319c0.01904,0.34463 0.03076,0.87608 0.10254,1.19814l-0.104,0.31752c-3.28564,-0.05216 -6.66943,0.22301 -9.98877,0.23605c-0.52441,0.05729 -1.98779,0.03253 -2.27637,0.15283l-0.13623,0.28704c-1.35645,0.30536 -2.67627,0.40954 -4.05322,0.74259l-0.22705,0.19385c-0.44092,-0.12821 -1.37109,-0.80457 -1.66113,-0.70611c-1.73291,0.58713 -3.46143,1.19624 -5.18701,1.80491c-0.27832,0.39372 -0.1875,1.1747 -0.1626,1.6808l0.04688,0.07927c-0.05566,0.34287 -0.1084,0.77996 -0.2124,1.1029c-0.08057,-1.05821 -0.01611,-2.59703 0,-3.69275c0.45703,0.51094 0.77197,0.21481 1.33154,-0.08176l-0.2417,-0.13524l-0.02197,-0.16616c1.42969,-1.14774 5.70117,-1.58336 7.53662,-2.26222c0.85547,0.01158 2.20752,-0.17949 3.09961,-0.28089z" fill="url(#color-23)"/><path d="M257.9458,74.76138c0.76172,0.0529 2.34082,0.12381 3.01465,0.29056c-0.89062,0.1814 -3.31201,0.13407 -4.42822,0.24807c-3.31787,0.33891 -5.88721,1.164 -8.95898,2.30588l-0.2417,-0.13524l-0.02197,-0.16616c1.42969,-1.14774 5.70117,-1.58336 7.53662,-2.26222c0.85547,0.01158 2.20752,-0.17949 3.09961,-0.28089z" fill="#0a452e"/><path d="M260.11084,76.04231c0.58008,-0.58508 9.30322,-0.83798 10.09277,-0.55358l-0.104,0.31752c-3.28564,-0.05216 -6.66943,0.22301 -9.98877,0.23605z" fill="#0a452e"/><path d="M257.83447,76.19514l-0.13623,0.28704c-1.35645,0.30536 -2.67627,0.40954 -4.05322,0.74259l-0.04248,0.00264l-0.11865,-0.06257l-0.16699,0.06227l-0.0835,-0.18492c0.64893,-0.54434 3.66943,-0.83432 4.60107,-0.84707z" fill="#136640"/><path d="M253.37842,62.42712c0.69727,0.03326 2.38037,0.06345 3.02197,0.15004l0.16406,0.16645c-0.45703,0.22243 -0.6123,0.29261 -1.10303,0.42815l0.07324,0.04865c0.29736,0.19327 0.31201,0.20689 0.64893,0.2847l-0.60059,0.1033v0.95989l0.00293,0.56706l0.00586,1.49706l-0.00439,0.60603l0.04688,1.37251c0.11572,0.74435 0.09229,1.58395 0.09521,2.34383c-1.58789,0.20045 -8.0127,1.45559 -9.30615,2.10089l-0.07324,0.22389l-0.07031,0.03385c-0.1582,-1.39844 -0.00146,-4.93338 0.03662,-6.40773c-0.04102,-0.75637 -0.04248,-1.55347 -0.05713,-2.31365l0.02197,-1.5309l-0.01611,-0.26067c0.71631,-0.26272 5.95898,-0.33012 7.11328,-0.37335z" fill="#167046"/><path d="M253.37842,62.42712c0.69727,0.03326 2.38037,0.06345 3.02197,0.15004l0.16406,0.16645c-0.45703,0.22243 -0.6123,0.29261 -1.10303,0.42815l0.07324,0.04865c0.29736,0.19327 0.31201,0.20689 0.64893,0.2847l-0.60059,0.1033v0.95989l0.00293,0.56706l0.00586,1.49706c-3.17578,0.03942 -5.79639,0.07107 -8.97363,0.39284l-0.30176,-0.11957c-0.04102,-0.75637 -0.04248,-1.55347 -0.05713,-2.31365l0.02197,-1.5309l-0.01611,-0.26067c0.71631,-0.26272 5.95898,-0.33012 7.11328,-0.37335z" fill="#1e7e50"/><path d="M246.49219,64.78545c2.89453,-0.02081 6.20508,-0.07385 9.09082,-0.21715l0.00293,0.56706l0.00586,1.49706c-3.17578,0.03942 -5.79639,0.07107 -8.97363,0.39284l-0.30176,-0.11957c-0.04102,-0.75637 -0.04248,-1.55347 -0.05713,-2.31365z" fill="#167046"/><path d="M246.49219,64.78545c2.89453,-0.02081 6.20508,-0.07385 9.09082,-0.21715l0.00293,0.56706c-1.55566,-0.09583 -8.13721,0.2932 -9.01904,-0.00645z" fill="#0b5435"/><path d="M253.37842,62.42712c0.69727,0.03326 2.38037,0.06345 3.02197,0.15004l0.16406,0.16645c-0.45703,0.22243 -0.6123,0.29261 -1.10303,0.42815c-1.46338,-0.09671 -8.53418,0.27913 -9.18018,-0.11063l-0.01611,-0.26067c0.71631,-0.26272 5.95898,-0.33012 7.11328,-0.37335z" fill="#0b5536"/><path d="M255.63428,68.61095c0.11572,0.74435 0.09229,1.58395 0.09521,2.34383c-1.58789,0.20045 -8.0127,1.45559 -9.30615,2.10089c-0.02197,-0.52354 -0.01758,-0.90949 0.00439,-1.43376c0.80859,-1.19521 8.43164,-0.49526 9.13623,-1.94572c-0.95654,-0.72692 -8.04346,0.14491 -9.07031,-0.20235l0.02637,-0.20455c0.92578,-0.56618 7.48389,-0.30433 9.11426,-0.65834z" fill="#0a452e"/><path d="M255.5918,66.63241l-0.00439,0.60603c-1.51025,-0.51929 -8.31738,0.43928 -8.96924,-0.2132c3.17725,-0.32177 5.79785,-0.35342 8.97363,-0.39284z" fill="#0b5536"/><path d="M272.66455,59.83038l0.03369,0.89659c-0.01465,0.82084 -0.06738,1.52929 0.13477,2.32844l-0.18164,0.50332c-0.13477,0.06286 -15.69727,0.23708 -17.06836,0.04967l0.60059,-0.1033c-0.33691,-0.07781 -0.35156,-0.09143 -0.64893,-0.2847l-0.07324,-0.04865c0.49072,-0.13554 0.646,-0.20572 1.10303,-0.42815l-0.16406,-0.16645c-0.6416,-0.0866 -2.32471,-0.11678 -3.02197,-0.15004c-0.45264,-0.38859 -5.98975,0.0022 -6.93896,-0.00703c0.08496,-0.43225 0.12451,-1.01704 0.16699,-1.46731c1.64795,0.02388 5.51074,0.11488 7.03857,-0.04953c-1.4751,-0.19297 -4.30811,-0.0677 -5.99707,-0.13085c-0.42041,0.0233 -0.52588,0.04616 -0.91406,-0.10433l0.03516,-0.17363c0.7749,-0.17114 8.21631,-0.24528 9.49072,-0.25246c5.48145,-0.03106 10.7373,-0.74933 16.12793,-0.32705c0.08057,0.02183 0.16553,-0.03912 0.27686,-0.08455z" fill="#167046"/><path d="M264.82178,62.27663c0.84668,0.09553 7.03418,0.02989 7.63037,-0.14037c0.14355,-0.54112 0.18164,-0.85029 0.24609,-1.40929c-0.01465,0.82084 -0.06738,1.52929 0.13477,2.32844l-0.18164,0.50332c-0.13477,0.06286 -15.69727,0.23708 -17.06836,0.04967l0.60059,-0.1033c-0.33691,-0.07781 -0.35156,-0.09143 -0.64893,-0.2847l-0.07324,-0.04865c0.49072,-0.13554 0.646,-0.20572 1.10303,-0.42815l-0.16406,-0.16645c2.76709,-0.10989 5.65869,-0.25583 8.42139,-0.30052z" fill="#0b5435"/><path d="M264.82178,62.27663c0.84668,0.09553 7.03418,0.02989 7.63037,-0.14037c0.14355,-0.54112 0.18164,-0.85029 0.24609,-1.40929c-0.01465,0.82084 -0.06738,1.52929 0.13477,2.32844c-1.03857,-0.51709 -13.7417,0.12645 -16.26855,-0.31181l-0.16406,-0.16645c2.76709,-0.10989 5.65869,-0.25583 8.42139,-0.30052z" fill="#0a452e"/><path d="M272.66455,59.83038l0.03369,0.89659c-0.06445,0.559 -0.10254,0.86817 -0.24609,1.40929c-0.59619,0.17026 -6.78369,0.23591 -7.63037,0.14037c1.79004,-0.45423 5.45947,-0.33144 7.46924,-0.39562l-0.13037,-0.34346c0.15234,-0.29364 0.17578,-0.31137 0.15527,-0.62992c-0.41016,-0.08455 -4.28906,-0.01084 -5.08887,-0.02828l-11.91211,-0.18638c-2.27783,-0.02755 -5.47119,-0.14242 -7.66699,0.07942c-0.42041,0.0233 -0.52588,0.04616 -0.91406,-0.10433l0.03516,-0.17363c0.7749,-0.17114 8.21631,-0.24528 9.49072,-0.25246c5.48145,-0.03106 10.7373,-0.74933 16.12793,-0.32705c0.08057,0.02183 0.16553,-0.03912 0.27686,-0.08455z" fill="#0b5435"/><path d="M246.20801,54.05125c1.68604,-0.23488 5.39355,-0.1159 7.24219,-0.09685l12.97705,0.06066c1.53223,0.00249 4.12646,0.12601 5.55615,0.03531l0.54053,0.06198c0.31787,0.56574 0.16113,1.18408 0.09375,1.87231c-0.52002,0.51519 -0.42187,0.36881 -1.23193,0.56207l0.4248,0.10667l-0.31641,-0.13598l-0.07324,0.04454c0.37939,0.11224 0.46143,0.1285 0.85693,0.1436c-0.80713,0.15165 -3.44385,0.0677 -4.41357,0.08953c-5.73486,0.12924 -13.31982,-0.89864 -18.89795,-0.4069l-0.12451,0.03443c-1.00781,0.26917 -1.48389,-0.03473 -2.1123,0.38859c-0.21973,0.56163 -0.17432,0.89381 -0.33838,1.29119c-0.07617,-0.37789 -0.17285,-3.54036 -0.12305,-3.81041c1.38574,-0.17085 4.5,-0.0696 6.10986,-0.10872c-2.07861,-0.15561 -4.12939,0.01333 -6.16992,-0.13202z" fill="#27895a"/><path d="M271.9834,54.05037l0.54053,0.06198c0.31787,0.56574 0.16113,1.18408 0.09375,1.87231c-0.52002,0.51519 -0.42187,0.36881 -1.23193,0.56207l0.4248,0.10667l-0.31641,-0.13598l-0.07324,0.04454c0.37939,0.11224 0.46143,0.1285 0.85693,0.1436c-0.80713,0.15165 -3.44385,0.0677 -4.41357,0.08953c-5.73486,0.12924 -13.31982,-0.89864 -18.89795,-0.4069c-0.72803,-0.01729 -1.24658,-0.03663 -1.979,-0.12689c2.23096,-0.21217 6.12891,-0.03004 8.52979,-0.08323c3.80566,0.00147 7.61426,-0.1707 11.41699,-0.27825c0.80127,-0.02271 5.07129,0.09656 5.38037,-0.12865c0.04395,-0.37481 0.08643,-0.55372 -0.02051,-0.9256c-1.67432,-0.30785 -5.53711,0.2132 -7.24805,-0.09832c1.15576,-0.40558 6.58154,0.13612 7.34033,-0.42742z" fill="#136640"/><path d="M272.27783,56.70557c-0.39551,-0.01509 -0.47754,-0.03136 -0.85693,-0.1436l0.07324,-0.04454l0.31641,0.13598l-0.4248,-0.10667c0.81006,-0.19327 0.71191,-0.04689 1.23193,-0.56207c0.00732,1.24532 -0.01318,2.61109 0.04688,3.84572c-0.11133,0.04542 -0.19629,0.10638 -0.27686,0.08455c0,-0.60251 0.10107,-0.64706 -0.18164,-1.05909c-1.88379,-0.17393 -3.84082,0.04205 -5.72754,-0.04879c-5.52832,-0.26624 -11.05811,-0.12176 -16.58789,-0.36588c-0.98877,-0.04366 -2.16357,0.07092 -3.12598,-0.10359l0.08789,-0.11502c8.18994,0.12938 16.33008,-0.31166 24.50537,-0.38434c0.58887,-0.00527 0.69727,0.02403 1.06348,-0.43797c0.0249,-0.49145 0.07764,-0.32162 -0.14355,-0.69468z" fill="#0b5536"/><path d="M68.36748,29.30257l15.72832,-0.0085l-0.02432,2.88026c0.03809,3.20511 0.22954,8.68035 0.01934,11.70259c0.14136,1.77765 0.08306,3.70154 0.08232,5.50059c-0.00513,11.22975 0.68687,22.41745 0.33384,33.65336c-0.02593,0.82626 -0.43022,4.78598 -0.34834,5.18541l-0.14927,0.01714c-0.09785,-1.49779 0.90234,-12.25236 0.09873,-13.35379c-0.07676,0.48925 -0.06973,0.67094 -0.05698,1.15887c-0.10312,-1.45442 -1.63784,-8.08472 -2.32222,-9.31803c-0.32197,-0.18462 -0.33325,0.02564 -0.67119,0.19166c-8.88413,4.3656 -8.49214,-10.05022 -8.59614,-13.79337l-0.14092,0.00322c-0.51812,0.75739 0.03193,0.17612 0.0186,0.95344l-0.19409,0.04953c-0.4875,-0.36866 0.03896,-0.99711 -0.14883,-2.25753l0.13579,-0.12601l0.30469,0.20015c0.04233,-0.20309 0.09463,-0.38727 0.14956,-0.5864l-0.94731,-1.14305c0.22661,-0.26931 0.05786,0.11239 0.65713,0.03912c-0.70151,-0.58303 -1.07666,-1.00619 -1.68193,-1.67596c-0.12261,-0.6072 -0.60146,-0.61643 -0.80142,-1.0081c-0.05581,-0.10931 -0.21064,-0.77542 -0.25796,-0.9533l-0.15146,0.00791c-0.50522,-1.41984 -0.75366,-2.31658 -1.37065,-3.75546l0.35786,-0.35708c-0.1689,-3.52468 -0.10679,-7.08732 -0.05991,-10.61625z" fill="url(#color-24)"/><path d="M68.36748,29.30257l15.72832,-0.0085l-0.02432,2.88026c0.03809,3.20511 0.22954,8.68035 0.01934,11.70259c-0.26484,0.25906 -0.15996,2.27071 -0.15527,2.74473c-1.01133,-0.13861 -2.54751,-0.36954 -3.50537,-0.41628c-1.7748,-0.0863 -11.41655,-2.88187 -12.03955,-3.69612c-0.1689,-3.52468 -0.10679,-7.08732 -0.05991,-10.61625z" fill="url(#color-25)"/><path d="M68.36748,29.30257l15.72832,-0.0085l-0.02432,2.88026c-0.11309,0.27254 -0.14795,0.50302 -0.20625,0.78846c-0.91348,-0.33027 -4.95176,-0.03077 -6.1103,0.00381c-2.46797,0.0737 -6.71968,0.9744 -9.06313,0.61658c-0.22383,-0.2828 -0.26821,-1.20444 -0.36108,-1.69018z" fill="#33b26f"/><path d="M84.10811,74.87963c-0.07676,0.48925 -0.06973,0.67094 -0.05698,1.15887c-0.10312,-1.45442 -1.63784,-8.08472 -2.32222,-9.31803c-0.32197,-0.18462 -0.33325,0.02564 -0.67119,0.19166c-8.88413,4.3656 -8.49214,-10.05022 -8.59614,-13.79337l-0.14092,0.00322c-0.51812,0.75739 0.03193,0.17612 0.0186,0.95344l-0.19409,0.04953c-0.4875,-0.36866 0.03896,-0.99711 -0.14883,-2.25753l0.13579,-0.12601l0.30469,0.20015c0.04233,-0.20309 0.09463,-0.38727 0.14956,-0.5864l-0.94731,-1.14305c0.22661,-0.26931 0.05786,0.11239 0.65713,0.03912c6.52368,6.15732 10.04106,15.99712 11.81191,24.62839z" fill="url(#color-26)"/><path d="M89.49111,53.9604c2.76899,0.06476 5.53872,0.08586 8.30815,0.06345c0.67104,0.0107 0.85708,-0.09422 1.36831,0.21906c0.4377,0.77424 0.23467,1.93326 0.15908,2.86502c0.09346,3.06752 -0.23437,26.64444 0.52925,27.38263l0.52617,0.94934l0.54214,0.68911l0.02256,0.12938c0.14854,0.14389 1.08501,1.02993 1.15884,1.12898c0.16055,0.09715 1.09424,0.65014 1.17744,0.7275c1.78799,0.55284 2.30771,0.63153 4.17612,0.58376l0.44692,-0.0463c0.1188,0.32954 0.1812,0.40895 0.473,0.60266l-1.02612,0.25144c1.7354,2.54413 4.61616,5.34117 7.48682,6.62107c0.04893,0.02183 0.9208,-0.40046 1.46104,-0.39415c-4.37139,2.73945 -6.17007,3.22313 -11.59146,3.18782c-0.88901,-0.09011 -1.26196,-0.12352 -2.13398,-0.38273c-0.60278,-0.07444 -1.1272,-0.23796 -1.70801,-0.40177c-0.53672,-0.15429 -1.25273,-0.4554 -1.86211,-0.64032c-0.40986,-0.137 -1.15327,-0.50097 -1.5728,-0.69102c-1.54687,0.03678 -6.21167,-5.73854 -6.24976,-7.4636c-2.08008,-4.86628 -1.58745,-10.0552 -1.61689,-15.37087c0.07749,-1.3687 -0.04438,-3.46959 -0.03384,-4.90247c0.0293,-3.96705 -0.11455,-8.03182 -0.00513,-11.99169z" fill="url(#color-27)"/><path d="M97.86621,88.77c0.32344,-1.10422 1.42734,-3.22724 1.9897,-4.27944l0.52617,0.94934l0.54214,0.68911l0.02256,0.12938c0.14854,0.14389 1.08501,1.02993 1.15884,1.12898c0.16055,0.09715 1.09424,0.65014 1.17744,0.7275c1.78799,0.55284 2.30771,0.63153 4.17612,0.58376l0.44692,-0.0463c0.1188,0.32954 0.1812,0.40895 0.473,0.60266l-1.02612,0.25144c1.7354,2.54413 4.61616,5.34117 7.48682,6.62107c0.04893,0.02183 0.9208,-0.40046 1.46104,-0.39415c-4.37139,2.73945 -6.17007,3.22313 -11.59146,3.18782c-0.88901,-0.09011 -1.26196,-0.12352 -2.13398,-0.38273c-0.60278,-0.07444 -1.1272,-0.23796 -1.70801,-0.40177c-0.53672,-0.15429 -1.25273,-0.4554 -1.86211,-0.64032c-0.30059,-0.50874 -0.58667,-1.02583 -0.85796,-1.55083c0.17095,-0.4935 0.04336,-1.46658 0.00439,-2.02733c-0.1333,-0.34888 -0.1853,-0.80692 -0.24639,-1.18364c-0.12803,0.23019 -0.25796,0.45936 -0.38979,0.68735c0.05156,-1.08283 0.4333,-4.0261 0.35068,-4.65191z" fill="url(#color-28)"/><path d="M97.86621,88.77c0.32344,-1.10422 1.42734,-3.22724 1.9897,-4.27944l0.52617,0.94934l0.54214,0.68911l0.02256,0.12938c0.14854,0.14389 1.08501,1.02993 1.15884,1.12898c-0.3126,0.62376 0.01846,0.51416 0.02153,1.18481c0.00059,0.12484 -0.43931,0.47372 -0.44385,0.51914c-0.27349,2.75234 -0.04644,5.21149 0.80889,7.84398c0.52104,1.60373 1.33916,1.00502 2.21719,1.98587c-0.88901,-0.09011 -1.26196,-0.12352 -2.13398,-0.38273c-0.60278,-0.07444 -1.1272,-0.23796 -1.70801,-0.40177c-0.53672,-0.15429 -1.25273,-0.4554 -1.86211,-0.64032c-0.30059,-0.50874 -0.58667,-1.02583 -0.85796,-1.55083c0.17095,-0.4935 0.04336,-1.46658 0.00439,-2.02733c-0.1333,-0.34888 -0.1853,-0.80692 -0.24639,-1.18364c-0.12803,0.23019 -0.25796,0.45936 -0.38979,0.68735c0.05156,-1.08283 0.4333,-4.0261 0.35068,-4.65191z" fill="#734319"/><path d="M97.86621,88.77c0.32344,-1.10422 1.42734,-3.22724 1.9897,-4.27944l0.52617,0.94934l0.54214,0.68911c-0.38467,0.32587 -0.81152,0.66874 -1.15181,1.03506c-0.47051,1.55449 -0.75015,7.12072 -0.56514,8.98073c0.03867,0.38815 1.30576,1.59772 1.66011,1.99187c-0.53672,-0.15429 -1.25273,-0.4554 -1.86211,-0.64032c-0.30059,-0.50874 -0.58667,-1.02583 -0.85796,-1.55083c0.17095,-0.4935 0.04336,-1.46658 0.00439,-2.02733c-0.1333,-0.34888 -0.1853,-0.80692 -0.24639,-1.18364c-0.12803,0.23019 -0.25796,0.45936 -0.38979,0.68735c0.05156,-1.08283 0.4333,-4.0261 0.35068,-4.65191z" fill="#734319"/><path d="M97.86621,88.77c0.32344,-1.10422 1.42734,-3.22724 1.9897,-4.27944l0.52617,0.94934c-0.25005,0.04835 -0.50581,0.05758 -0.62666,0.37789c-0.51621,1.36841 -1.06318,3.86873 -1.26782,5.29252c-0.196,1.3646 0.0709,1.33471 -0.33589,2.80788c-0.1333,-0.34888 -0.1853,-0.80692 -0.24639,-1.18364c-0.12803,0.23019 -0.25796,0.45936 -0.38979,0.68735c0.05156,-1.08283 0.4333,-4.0261 0.35068,-4.65191z" fill="#4e3c1a"/><path d="M100.92422,86.12902l0.02256,0.12938c-0.9249,2.01503 -0.80654,7.86566 -0.17959,10.14414c0.10181,0.37012 0.02285,0.39166 -0.14575,0.72838c0.25767,0.50141 1.28687,0.72047 1.95396,1.40753c-0.60278,-0.07444 -1.1272,-0.23796 -1.70801,-0.40177c-0.35435,-0.39415 -1.62144,-1.60373 -1.66011,-1.99187c-0.18501,-1.86 0.09463,-7.42623 0.56514,-8.98073c0.34028,-0.36632 0.76714,-0.70919 1.15181,-1.03506z" fill="#653b16"/><path d="M103.28306,88.11488c1.78799,0.55284 2.30771,0.63153 4.17612,0.58376l0.44692,-0.0463c0.1188,0.32954 0.1812,0.40895 0.473,0.60266l-1.02612,0.25144c-0.2814,0.07839 -1.84292,-0.35283 -2.28735,-0.45394c-0.63633,-0.04747 -1.34678,-0.18213 -1.82783,-0.6264z" fill="#d4a956"/><path d="M103.28306,88.11488c1.78799,0.55284 2.30771,0.63153 4.17612,0.58376c-0.86104,0.22668 -2.19624,0.03268 -2.39355,0.35386c-0.63633,-0.04747 -1.34678,-0.18213 -1.82783,-0.6264z" fill="#c79540"/><path d="M97.79927,54.02385c0.67104,0.0107 0.85708,-0.09422 1.36831,0.21906c0.4377,0.77424 0.23467,1.93326 0.15908,2.86502c0.09346,3.06752 -0.23437,26.64444 0.52925,27.38263c-0.56235,1.0522 -1.66626,3.17522 -1.9897,4.27944c-0.34102,0.57409 -0.34526,0.92282 -0.47109,1.15169l-0.34116,0.2866c-0.24199,0.65058 -0.17578,0.8097 -0.13403,1.49662c-0.0082,-1.5882 -0.25737,-3.90829 -0.35947,-5.57414c-0.18135,-3.08745 -0.29648,-6.17842 -0.34526,-9.27085c-0.06738,-4.16603 0.05552,-8.40708 0.01304,-12.57911c-0.01758,-1.73633 0.07998,-3.78447 -0.01699,-5.49004l0.06636,-3.70095c0.05771,0.46962 0.12949,1.25705 0.22148,1.69575c-0.09316,1.23976 0.02036,6.04684 0.25356,7.21318c0.38745,-0.53511 -0.39829,-0.79256 0.72861,-1.6216c0.51724,-1.42658 0.2978,-5.96815 0.26499,-7.68822z" fill="url(#color-29)"/><path d="M97.79927,54.02385c0.67104,0.0107 0.85708,-0.09422 1.36831,0.21906c0.4377,0.77424 0.23467,1.93326 0.15908,2.86502l-0.0334,0.13099c-0.24727,0.98949 -0.11309,2.29914 -0.629,2.87645c-0.32388,-0.04938 -0.30762,-0.04147 -0.5644,-0.24411c-0.00469,6.66166 0.20933,13.3305 0.1604,19.9923c-0.0041,0.54977 -0.09463,1.19199 -0.14062,1.74776l-0.08423,0.01333c-0.19849,-1.98821 -0.22354,-3.16482 -0.07397,-5.11361c0.13315,-1.73545 -0.25312,-3.90243 -0.15176,-5.69561c0.0394,-3.11045 0.0835,-5.35216 -0.32842,-8.43829c0.51724,-1.42658 0.2978,-5.96815 0.26499,-7.68822z" fill="#136640"/><path d="M97.79927,54.02385c0.67104,0.0107 0.85708,-0.09422 1.36831,0.21906c0.4377,0.77424 0.23467,1.93326 0.15908,2.86502l-0.0334,0.13099c-0.24727,0.98949 -0.11309,2.29914 -0.629,2.87645c-0.32388,-0.04938 -0.30762,-0.04147 -0.5644,-0.24411c0.00776,-0.73834 -0.12407,-4.80019 -0.35361,-5.18233z" fill="#409f6c"/><path d="M89.49111,53.9604c2.76899,0.06476 5.53872,0.08586 8.30815,0.06345l-0.05303,0.66508c0.03281,1.72007 0.25225,6.26164 -0.26499,7.68822c-1.1269,0.82904 -0.34116,1.08649 -0.72861,1.6216c-0.2332,-1.16635 -0.34673,-5.97343 -0.25356,-7.21318c-0.09199,-0.4387 -0.16377,-1.22613 -0.22148,-1.69575l-0.06636,3.70095c-0.15059,0.56237 -0.07808,3.22401 -0.27949,3.36072l-0.34292,-0.26345c-0.5625,0.50698 -0.30278,0.83212 -0.58755,1.08283c-0.12803,-0.97997 -0.0375,-8.21542 -0.03325,-8.20765l-0.22559,0.13129c-0.22339,0.89923 -0.30615,6.95867 -0.33838,8.23945c-0.28608,-0.47533 0.23042,-0.68472 -0.20859,-0.90157c-0.56016,0.20045 -0.60396,0.0696 -0.75439,0.64823c-0.31948,-1.43068 0.09683,-7.53583 -0.34438,-8.15403c-0.34351,1.05176 -0.25122,6.38853 -0.37881,8.16135c-0.13022,-0.52998 -0.02461,-0.36133 -0.36079,-0.71944c-0.39683,-0.04747 -0.26455,-0.08337 -0.60513,0.06374c-0.0356,0.41569 -0.08174,1.2103 -0.16743,1.58395c-0.13667,1.34306 -0.11147,2.83484 -0.17578,4.18859c-0.02285,0.4809 0.07148,1.19521 -0.01685,1.63347l-0.14795,-0.09759l-0.0189,-0.17905c0.25298,-1.21807 0.11704,-2.62326 -0.07617,-3.83561l-0.02124,0.17964c-0.25371,-0.29891 -0.21709,-0.85102 -0.15908,-1.21177l-0.00176,-2.86151c-0.62285,-0.21349 -0.59048,-0.32675 -1.04692,-0.12557c-0.25825,0.48339 -0.14648,1.67406 -0.13169,2.28214c-0.28535,-1.77487 -0.02651,-4.66934 -0.26133,-6.71221z" fill="#33b26f"/><path d="M90.96855,64.49386c0.4396,-2.6637 0.02358,-7.31604 0.43975,-9.56375c0.19688,0.96575 0.1689,7.50404 0.17622,8.88607c-0.13667,1.34306 -0.11147,2.83484 -0.17578,4.18859c-0.02285,0.4809 0.07148,1.19521 -0.01685,1.63347l-0.14795,-0.09759l-0.0189,-0.17905c0.25298,-1.21807 0.11704,-2.62326 -0.07617,-3.83561l-0.02124,0.17964c-0.25371,-0.29891 -0.21709,-0.85102 -0.15908,-1.21177z" fill="#1e7e50"/><path d="M96.27759,55.08982l0.01743,-0.35547c0.29912,0.28968 0.23687,1.61091 0.20405,2.05122c-0.09199,-0.4387 -0.16377,-1.22613 -0.22148,-1.69575z" fill="#409f6c"/><path d="M89.52686,57.07672c0.23481,2.04287 -0.02402,4.93734 0.26133,6.71221c-0.01479,-0.60808 -0.12656,-1.79875 0.13169,-2.28214c0.45645,-0.20118 0.42407,-0.08792 1.04692,0.12557l0.00176,2.86151c-0.05801,0.36075 -0.09463,0.91286 0.15908,1.21177l0.02124,-0.17964c0.19321,1.21236 0.32915,2.61754 0.07617,3.83561c-0.48135,0.73864 -0.33296,14.94492 -0.33003,16.89738c-0.06929,1.38614 0.50889,2.49285 0.2877,3.08276c-2.08008,-4.86628 -1.58745,-10.0552 -1.61689,-15.37087c0.07749,-1.3687 -0.04438,-3.46959 -0.03384,-4.90247c0.0293,-3.96705 -0.11455,-8.03182 -0.00513,-11.99169z" fill="#167046"/><path d="M89.56582,73.97087c0.9832,2.84451 0.42583,11.04381 1.3292,12.28811c-0.06929,1.38614 0.50889,2.49285 0.2877,3.08276c-2.08008,-4.86628 -1.58745,-10.0552 -1.61689,-15.37087z" fill="#0b5536"/><path d="M97.39512,89.9217c0.12583,-0.22887 0.13008,-0.57761 0.47109,-1.15169c0.08262,0.62581 -0.29912,3.56908 -0.35068,4.65191c0.13184,-0.22799 0.26177,-0.45716 0.38979,-0.68735c0.06108,0.37672 0.11309,0.83476 0.24639,1.18364c0.03896,0.56076 0.16655,1.53383 -0.00439,2.02733c0.27129,0.525 0.55737,1.04209 0.85796,1.55083c-0.40986,-0.137 -1.15327,-0.50097 -1.5728,-0.69102c-0.56587,-0.79725 -0.18604,-5.7173 -0.03735,-6.88365z" fill="#332e1a"/><path d="M97.51553,93.42191c0.13184,-0.22799 0.26177,-0.45716 0.38979,-0.68735c0.06108,0.37672 0.11309,0.83476 0.24639,1.18364c0.03896,0.56076 0.16655,1.53383 -0.00439,2.02733c-0.82544,-0.77307 -0.96387,-1.43566 -0.63179,-2.52362z" fill="#653b16"/><path d="M245.81543,84.45041c0.31787,0.05773 0.22119,0.04366 0.49219,0.33965c0.82617,0.25452 7.29785,-0.74098 9.30615,-0.76018c0.03076,1.24489 0.02197,3.09448 0.14648,4.28955c2.10352,-0.26902 7.12939,-0.03912 9.47314,-0.01729c1.90869,0.01758 5.73926,-0.05949 7.53076,0.0822c0.03809,0.07751 -0.01025,8.89911 -0.00586,9.6735l-10.65967,-0.02403c-1.875,-0.00352 -4.59961,0.05553 -6.40869,-0.12733c-0.73096,0.04059 -1.71826,-0.01099 -2.46826,-0.02799c-1.99805,0.1644 -5.35986,0.10521 -7.41943,0.12367c-0.02197,-4.51725 -0.01758,-9.0345 0.01318,-13.55175z" fill="url(#color-30)"/><path d="M255.76025,88.31943c2.10352,-0.26902 7.12939,-0.03912 9.47314,-0.01729c1.90869,0.01758 5.73926,-0.05949 7.53076,0.0822c0.03809,0.07751 -0.01025,8.89911 -0.00586,9.6735l-10.65967,-0.02403c-1.875,-0.00352 -4.59961,0.05553 -6.40869,-0.12733c-0.73096,0.04059 -1.71826,-0.01099 -2.46826,-0.02799c0.41162,-0.09334 0.84668,-0.05993 1.2583,-0.15913c1.16455,-0.28118 4.02393,-5.11141 4.6582,-6.39293c0.42627,-0.86113 0.65918,-1.84213 1.15576,-2.65857l0.05273,-0.08499c-1.53955,-0.26594 -3.04834,-0.07971 -4.58643,-0.26345z" fill="url(#color-31)"/><path d="M255.76025,88.31943c2.10352,-0.26902 7.12939,-0.03912 9.47314,-0.01729c1.90869,0.01758 5.73926,-0.05949 7.53076,0.0822l-0.1626,0.29935c-2.26025,0.44266 -8.0127,0.00103 -10.5293,0.29672c-0.78223,1.99495 -3.41748,7.36366 -5.42725,8.80929c-0.07178,0.05246 -0.79541,0.10638 -0.95508,0.11678c-0.73096,0.04059 -1.71826,-0.01099 -2.46826,-0.02799c0.41162,-0.09334 0.84668,-0.05993 1.2583,-0.15913c1.16455,-0.28118 4.02393,-5.11141 4.6582,-6.39293c0.42627,-0.86113 0.65918,-1.84213 1.15576,-2.65857l0.05273,-0.08499c-1.53955,-0.26594 -3.04834,-0.07971 -4.58643,-0.26345z" fill="#c79540"/><path d="M114.38071,68.75235c0.61641,0.08499 4.49487,-0.90802 5.13032,-1.19301l0.47476,-0.00777c0.96299,0.03927 2.6335,-0.05128 3.41646,0.23576c0.07603,2.11437 0.15996,4.91492 0.06123,7.01361c-0.03208,3.01726 0.31172,11.72179 -1.4937,14.01375c-0.80508,2.31086 -3.46274,5.7743 -5.66895,6.91867c-0.54023,-0.0063 -1.41211,0.41599 -1.46104,0.39415c-2.87065,-1.2799 -5.75142,-4.07694 -7.48682,-6.62107l1.02612,-0.25144c-0.2918,-0.19371 -0.3542,-0.27312 -0.473,-0.60266l0.06064,-0.01436c4.49678,-1.0966 5.74453,-3.38036 5.88779,-7.8957c-0.01787,-3.14753 -0.24199,-8.75874 -0.01729,-11.67402l0.27334,0.07033l-0.10166,-0.29833z" fill="url(#color-32)"/><path d="M114.16055,78.00268c0.5833,1.05909 1.74551,1.86117 2.54648,2.82121c1.50674,1.80608 2.91094,4.10273 4.60415,5.71407c1.72354,1.64007 0.24683,1.07887 0.58521,2.2058l0.07339,0.07092c-0.80508,2.31086 -3.46274,5.7743 -5.66895,6.91867c-0.54023,-0.0063 -1.41211,0.41599 -1.46104,0.39415c-2.87065,-1.2799 -5.75142,-4.07694 -7.48682,-6.62107l1.02612,-0.25144c-0.2918,-0.19371 -0.3542,-0.27312 -0.473,-0.60266l0.06064,-0.01436c4.49678,-1.0966 5.74453,-3.38036 5.88779,-7.8957l0.24609,-0.17422c0.03545,-0.85469 0.05552,-1.70996 0.05991,-2.56538z" fill="url(#color-33)"/><path d="M114.38071,68.75235c0.61641,0.08499 4.49487,-0.90802 5.13032,-1.19301l0.47476,-0.00777c0.96299,0.03927 2.6335,-0.05128 3.41646,0.23576c0.07603,2.11437 0.15996,4.91492 0.06123,7.01361l-0.10679,-0.62464l-0.23291,0.0737c-0.09463,-0.07912 -0.26206,-0.19473 -0.3356,-0.28602c-0.68071,-0.84531 -4.96655,-2.58765 -5.78159,-2.23818l0.04658,0.22038l0.62241,0.39547l-0.01392,0.20572c-0.37998,-0.07121 -0.29854,-0.114 -0.60381,0.00865l0.07617,0.1833l0.66299,0.12381l-0.02212,0.14228c-0.0646,0.01202 -0.3,0.05465 -0.3498,0.04586c-3.21035,-0.5675 -2.93335,-0.13803 -3.05742,-3.34519l-0.25708,-0.5675l-0.10166,-0.29833z" fill="url(#color-34)"/><path d="M114.38071,68.75235c0.61641,0.08499 4.49487,-0.90802 5.13032,-1.19301l0.47476,-0.00777c0.96299,0.03927 2.6335,-0.05128 3.41646,0.23576c0.07603,2.11437 0.15996,4.91492 0.06123,7.01361l-0.10679,-0.62464c0.02505,-1.16415 0.15981,-3.45025 -0.13682,-4.45249c-1.42456,-0.65028 -6.74399,0.60149 -8.8522,-0.01773l-0.25708,-0.5675l-0.10166,-0.29833z" fill="#653b16"/><path d="M56.18086,34.22349c4.62129,1.68901 9.52354,3.9606 11.8519,8.64284c0.61699,1.43889 0.86543,2.33562 1.37065,3.75546l0.15146,-0.00791c0.04731,0.17788 0.20215,0.84399 0.25796,0.9533c0.19995,0.39166 0.67881,0.4009 0.80142,1.0081c-0.03076,0.26257 -0.10151,0.94641 -0.02871,1.17602c0.94263,2.97536 2.04565,5.52857 1.56123,8.71669c-0.76567,3.55311 -0.15762,6.44524 0.78223,9.87981c0.1144,0.41804 0.40942,1.05411 0.25869,1.4087l-0.36592,0.12469c0.44707,1.35566 1.45444,2.42999 1.97959,3.70945c2.35869,5.7466 4.50469,11.67065 4.34678,17.96028c-0.01553,0.02535 -0.03105,0.05084 -0.04658,0.07619l0.06255,0.14902l-0.03677,0.03311c-0.52793,-4.35842 -0.71631,-8.87083 -2.66089,-12.98294l-0.20493,0.02916c-0.52456,-1.00385 -1.00957,-2.85814 -1.51362,-3.93276c-0.85767,-1.82821 -1.93477,-3.6929 -2.86084,-5.48652c-0.40005,-0.77468 -1.56108,-3.46417 -1.97505,-3.99137c-2.13691,-2.72157 -4.74785,-4.92371 -6.93589,-7.68295c-2.90479,-3.66286 -3.86089,-7.38857 -4.27412,-11.99433c-0.05098,-0.56881 -0.25386,-1.79187 -0.19541,-2.24024l0.22808,0.05832c0.03677,-2.71835 -1.3415,-6.91486 -2.55381,-9.36213z" fill="url(#color-35)"/><path d="M76.46646,78.82631l-0.20493,0.02916c-0.52456,-1.00385 -1.00957,-2.85814 -1.51362,-3.93276c-0.85767,-1.82821 -1.93477,-3.6929 -2.86084,-5.48652c-0.40005,-0.77468 -1.56108,-3.46417 -1.97505,-3.99137c-2.13691,-2.72157 -4.74785,-4.92371 -6.93589,-7.68295c-2.90479,-3.66286 -3.86089,-7.38857 -4.27412,-11.99433c-0.05098,-0.56881 -0.25386,-1.79187 -0.19541,-2.24024l0.22808,0.05832c0.60352,5.51524 0.88652,8.85252 4.10845,13.5075c1.22388,-0.51548 4.15005,0.35327 5.59453,-0.01392c1.58862,-0.40368 0.18999,-3.14386 1.08442,-4.2875c0.10737,-2.31159 0.22192,-3.86536 -0.11865,-6.16992l0.15146,-0.00791c0.04731,0.17788 0.20215,0.84399 0.25796,0.9533c0.19995,0.39166 0.67881,0.4009 0.80142,1.0081c-0.03076,0.26257 -0.10151,0.94641 -0.02871,1.17602c0.94263,2.97536 2.04565,5.52857 1.56123,8.71669c-0.76567,3.55311 -0.15762,6.44524 0.78223,9.87981c0.1144,0.41804 0.40942,1.05411 0.25869,1.4087l-0.36592,0.12469c0.44707,1.35566 1.45444,2.42999 1.97959,3.70945c2.35869,5.7466 4.50469,11.67065 4.34678,17.96028c-0.01553,0.02535 -0.03105,0.05084 -0.04658,0.07619l0.06255,0.14902l-0.03677,0.03311c-0.52793,-4.35842 -0.71631,-8.87083 -2.66089,-12.98294z" fill="#043423"/><path d="M76.46646,78.82631c-1.36274,-4.54143 -3.68174,-7.93233 -5.35254,-12.06026c-0.5042,-1.24547 -1.30591,-14.44292 -0.71733,-15.35446l-0.08437,0.15312l0.25957,0.03458c0.18018,0.45071 1.39834,6.05695 1.575,6.8687c-0.76567,3.55311 -0.15762,6.44524 0.78223,9.87981c0.1144,0.41804 0.40942,1.05411 0.25869,1.4087l-0.36592,0.12469c0.44707,1.35566 1.45444,2.42999 1.97959,3.70945c2.35869,5.7466 4.50469,11.67065 4.34678,17.96028c-0.01553,0.02535 -0.03105,0.05084 -0.04658,0.07619l0.06255,0.14902l-0.03677,0.03311c-0.52793,-4.35842 -0.71631,-8.87083 -2.66089,-12.98294z" fill="#0a452e"/><path d="M62.84312,57.09313c1.22388,-0.51548 4.15005,0.35327 5.59453,-0.01392c1.58862,-0.40368 0.18999,-3.14386 1.08442,-4.2875c-0.14004,3.94961 -0.277,8.99318 0.98906,12.7378c-0.60483,-0.49702 -0.93135,-0.97762 -1.43687,-1.55596c-2.02397,-2.31555 -4.33345,-4.46084 -6.23115,-6.88042z" fill="url(#color-36)"/><path d="M47.66074,60.68214c3.10063,0.13773 7.12529,0.58068 10.04077,1.51171c3.72129,0.52735 7.44668,4.24222 8.75859,4.46787c2.86523,3.27691 7.84263,9.50397 9.07354,13.64597l0.39771,-0.11781c0.26411,0.81454 0.6668,1.86923 0.67412,2.70912l0.10386,0.49951l-0.11279,0.1162c-0.79292,-1.18027 -1.61851,-1.65692 -2.37891,-2.67483c-2.28516,-3.05961 -3.55679,-4.20354 -6.98218,-5.8247c-7.48989,-3.54461 -14.72593,-1.13675 -22.396,-3.96368c0.30557,-0.51592 0.32124,-2.90957 0.63647,-3.71883c0.52646,-1.35112 1.07241,-5.39846 1.64839,-6.48846l0.50654,-0.0359z" fill="url(#color-37)"/><path d="M47.66074,60.68214c3.10063,0.13773 7.12529,0.58068 10.04077,1.51171c-0.41719,0.22506 -4.17407,-0.42493 -4.84512,-0.55724c-0.98701,-0.19459 -4.66538,-0.41862 -5.22554,-0.82831z" fill="#1e7e50"/><path d="M75.93135,80.18988c0.26411,0.81454 0.6668,1.86923 0.67412,2.70912c-0.28022,-0.44764 -0.85063,-2.0184 -1.07183,-2.59131z" fill="#898e88"/><path d="M129.20669,69.58052l0.3731,0.00396l0.13608,0.10491c0.60425,0.03648 0.68745,0.10902 1.19824,0.44749c2.72314,2.00374 5.25718,2.24009 7.75928,5.28124c0.19146,1.01484 0.24551,2.43658 0.18706,3.47193l-0.1623,4.67433c0.01362,1.26598 0.04731,2.58472 0.02358,3.84631c0.10093,1.89282 0.17256,3.78726 0.21489,5.68243c0.03237,1.65047 0.0501,3.30123 0.05288,4.95199c-3.26938,-0.02432 -6.53906,-0.01729 -9.8083,0.0211c0.13125,-2.83323 0.07427,-6.03277 0.08452,-8.89325c-0.04556,-2.30207 -0.05713,-4.60458 -0.03457,-6.90694c-0.12437,-3.82374 -0.11147,-8.88768 -0.02446,-12.68549z" fill="url(#color-38)"/><path d="M129.20669,69.58052l0.3731,0.00396l0.13608,0.10491c0.60425,0.03648 0.68745,0.10902 1.19824,0.44749c2.72314,2.00374 5.25718,2.24009 7.75928,5.28124c0.19146,1.01484 0.24551,2.43658 0.18706,3.47193l-0.1623,4.67433c-0.09038,-0.60134 -0.1355,-1.27507 -0.46187,-1.77604c-0.71074,-0.36602 -7.27163,-1.35976 -8.47837,-1.50424c-0.29033,0.39635 -0.19072,1.3054 -0.52676,1.98191c-0.12437,-3.82374 -0.11147,-8.88768 -0.02446,-12.68549z" fill="url(#color-39)"/><path d="M129.71587,69.68938c0.60425,0.03648 0.68745,0.10902 1.19824,0.44749c2.72314,2.00374 5.25718,2.24009 7.75928,5.28124c0.19146,1.01484 0.24551,2.43658 0.18706,3.47193c-0.15894,-0.49203 -0.26162,-1.51816 -0.33354,-2.06704c-2.43618,-0.74904 -6.31318,-3.3046 -8.6729,-4.23841z" fill="#945a20"/><path d="M129.56748,91.79401c2.12476,-1.04458 7.86079,-1.12356 8.77324,-1.65545c-0.24463,-1.30936 0.09536,-1.45647 0.38101,-2.72787c0.10093,1.89282 0.17256,3.78726 0.21489,5.68243c0.03237,1.65047 0.0501,3.30123 0.05288,4.95199c-3.26938,-0.02432 -6.53906,-0.01729 -9.8083,0.0211c0.13125,-2.83323 0.07427,-6.03277 0.08452,-8.89325c0.43491,0.63006 0.31128,1.83348 0.30176,2.62106z" fill="url(#color-40)"/><path d="M138.93662,93.0931c0.03237,1.65047 0.0501,3.30123 0.05288,4.95199c-3.26938,-0.02432 -6.53906,-0.01729 -9.8083,0.0211c0.796,-0.77336 0.60483,-2.2184 0.66621,-3.26328l0.07002,0.02095c0.03472,0.2784 0.07178,0.55665 0.11104,0.83461c1.00737,0.3458 4.51113,-1.00795 5.73955,-1.06363c1.94927,-0.08806 2.44233,0.58977 3.1686,-1.50175z" fill="url(#color-41)"/><path d="M161.25879,45.88447c4.94678,-5.25398 14.47119,-3.71443 19.34473,-9.00124c-1.03857,2.02572 -1.30811,3.79092 -2.10645,5.73854c-2.52539,6.1623 -5.19873,10.71428 -11.85645,12.723c-2.38477,0.71944 -4.4165,1.14158 -6.6709,2.15935c-1.78564,1.00326 -3.49658,2.42471 -4.64502,4.1442c-0.3208,0.37496 -0.53613,0.65922 -0.82324,1.06129l-0.37354,0.25071l-0.16113,0.57878l-0.11572,0.00659l-0.12744,-0.68662c0.74854,-5.4559 3.18604,-13.36493 7.53516,-16.9746z" fill="url(#color-42)"/><path d="M161.25879,45.88447c0.00439,0.70904 -2.07861,3.09434 -2.59131,3.91605c-2.04199,3.2668 -3.36182,7.11384 -4.20264,10.85655c-0.19922,0.92414 -0.26953,1.36255 -0.33691,2.30324l-0.16113,0.57878l-0.11572,0.00659l-0.12744,-0.68662c0.74854,-5.4559 3.18604,-13.36493 7.53516,-16.9746z" fill="#33b26f"/><path d="M154.46484,60.65708l0.31641,0.04733c0.97705,-0.54273 0.6665,-1.46746 2.01709,-1.91803c0.96533,-0.32148 2.13428,-1.23053 3.17139,-1.28225c-1.78564,1.00326 -3.49658,2.42471 -4.64502,4.1442c-0.3208,0.37496 -0.53613,0.65922 -0.82324,1.06129l-0.37354,0.25071c0.06738,-0.9407 0.1377,-1.3791 0.33691,-2.30324z" fill="#136640"/><path d="M199.28467,83.37213c0.5376,-0.21041 0.5918,-0.80736 0.70459,-1.35624c0.07324,1.54189 0.13916,1.93751 0.70166,3.36409l0.17578,0.02989l0.36914,-0.33012c0.46729,0.18199 0.61084,0.66508 0.86572,1.23961c0.76465,1.71626 1.44287,3.53201 2.23389,5.2408c0.00439,0.00835 -0.13916,0.47035 -0.17139,0.53599c-0.14941,0.3162 -0.26367,0.46097 -0.37061,0.81718c-1.12354,1.44167 -3.94189,3.11045 -5.64111,3.83942c-2.00244,0.90758 -4.13232,1.50599 -6.31348,1.77472c-5.12256,0.5801 -10.95996,-0.50625 -15.06445,-3.76543c0.26514,-0.07077 0.25635,-0.08411 0.44531,-0.26697c-0.22852,-0.58698 -0.69287,-0.12088 -1.12646,-0.75241c0.15381,-0.41145 1.69629,-1.39302 2.16211,-1.72827c2.10498,-1.51215 3.87451,-3.32057 6.35303,-4.19944c-0.78662,-0.32646 -1.22314,-0.45262 -1.6875,-1.15638c2.05811,1.06568 3.55371,1.8074 5.91797,1.96579c0.59766,0.04 1.64355,-0.00733 2.146,0.04762c0.49658,-0.0781 0.99023,-0.17202 1.48096,-0.28148c3.30908,-0.73966 5.04785,-2.22602 6.81885,-5.01837z" fill="url(#color-43)"/><path d="M199.28467,83.37213c0.5376,-0.21041 0.5918,-0.80736 0.70459,-1.35624c0.07324,1.54189 0.13916,1.93751 0.70166,3.36409l0.17578,0.02989l0.36914,-0.33012c0.46729,0.18199 0.61084,0.66508 0.86572,1.23961c0.76465,1.71626 1.44287,3.53201 2.23389,5.2408c0.00439,0.00835 -0.13916,0.47035 -0.17139,0.53599c-0.14941,0.3162 -0.26367,0.46097 -0.37061,0.81718c-1.12354,1.44167 -3.94189,3.11045 -5.64111,3.83942c-0.54639,-0.14242 -1.47656,-0.32441 -1.89697,-0.64384c0.20215,-0.0444 0.31201,-0.03355 0.51563,-0.03004c-0.06885,-0.14975 -5.23242,-6.46678 -5.60742,-6.90284c-1.63477,0.074 -1.62744,-0.05436 -3.18457,-0.17261c0.59912,-0.01539 2.63525,-0.02637 3.00586,-0.33144c0.49658,-0.0781 0.99023,-0.17202 1.48096,-0.28148c3.30908,-0.73966 5.04785,-2.22602 6.81885,-5.01837z" fill="url(#color-44)"/><path d="M157.48242,61.53052c0.2124,-0.35694 0.51855,-0.88238 0.93896,-0.90582c0.7793,-0.04323 1.96729,-1.4824 2.625,-1.3454c0.31201,0.45848 0.04541,0.69937 0.11719,1.43625c0.18311,-0.44808 0.17285,-0.66684 0.51709,-0.86436c0.57129,0.70347 0.41162,4.20515 0.41016,5.33721c0.23145,-0.52837 0.07617,-1.89649 0.12451,-2.5897c0.11719,-1.74102 0.71045,-2.7941 0.60059,-4.59169l0.18457,-0.19312c-0.03369,2.20683 0.26514,4.19123 0.26514,6.42561l-0.15527,24.79762c-0.25635,-0.29188 -0.14941,-2.82575 -0.14502,-3.39266c-2.7832,-2.58633 -6.18311,-6.48759 -8.74219,-8.61676l-0.8584,-1.14012l0.52295,-0.14198c-0.36475,-1.01367 -0.2417,-9.30513 -0.24023,-10.99165c-0.03369,-0.75021 -0.07324,-1.1451 0.07617,-1.89487l0.12744,0.68662l0.11572,-0.00659l0.16113,-0.57878l0.37354,-0.25071c0.28711,-0.40207 0.50244,-0.68633 0.82324,-1.06129c-0.14209,0.26419 -0.21826,0.50654 -0.31934,0.78787c0.46436,0.7549 1.95703,-0.56354 2.47705,-0.90568z" fill="#0b5536"/><path d="M153.64746,64.75395l0.58301,-0.33261c0.29443,0.10945 0.30615,0.11151 0.51123,0.34126c0.16406,-0.37276 0.27393,-0.60969 0.47607,-0.9681l0.14795,-0.00161c0.45703,0.66362 0.33691,7.33055 0.28418,8.65207l-0.07178,0.07473c-0.14795,-1.50585 -0.02637,-7.09611 -0.39697,-7.84867c-0.2959,0.43342 -0.38086,5.1901 -0.67383,6.46136l-0.01318,-0.07092c-0.09082,0.75021 -0.40869,4.3804 -0.60645,4.68414c-0.36475,-1.01367 -0.2417,-9.30513 -0.24023,-10.99165z" fill="#167046"/><path d="M157.48242,61.53052c0.16406,0.7341 0.104,8.41279 -0.08057,8.67712c-0.25049,-0.71812 0.15674,-3.6715 -0.27393,-4.02273c-0.21533,0.63768 0.07324,0.88091 -0.22412,1.1281c-0.35303,-0.73043 0.31055,-1.96946 -0.4292,-2.23452c-0.45996,0.64633 0.06152,6.30443 -0.27686,7.24718l-0.11279,-0.08689c-0.06006,-1.24972 -0.38086,-7.66859 0.13916,-8.46935l0.09082,0.0107c0.20068,0.02213 0.33105,0.06638 0.49512,-0.03033l0.10107,-0.40998c-0.21387,0.10301 -0.63867,0.33569 -0.84814,0.35811l-0.60205,-0.96868c-0.26221,0.09993 -0.26514,0.11502 -0.479,0.27737l-0.48047,-0.29701c0.28711,-0.40207 0.50244,-0.68633 0.82324,-1.06129c-0.14209,0.26419 -0.21826,0.50654 -0.31934,0.78787c0.46436,0.7549 1.95703,-0.56354 2.47705,-0.90568z" fill="#0b5435"/><path d="M159.88623,61.38444c0.67529,0.70157 0.64746,11.16631 0.67236,12.69692l0.03223,-0.33804c0.17285,2.03539 -0.05566,3.85305 0.01611,5.87467c0.01611,0.45848 0.19482,1.06642 0.25488,1.63626c-0.09082,0.33716 -0.10986,0.39372 -0.29297,0.69043l-0.27393,0.02608c-0.4834,-0.62054 -0.19482,-4.90847 -0.3501,-6.03453c-0.09229,-0.66318 -0.30469,-2.05532 -0.3501,-2.71044c-0.20215,-2.90209 -0.2124,-5.8754 0.04834,-8.77178c0.10107,-1.05777 0.25488,-2.00081 0.24316,-3.06957z" fill="url(#color-45)"/><path d="M162.22998,69.08702c0.03223,2.4609 0.9873,12.24943 -0.04687,13.78048c-0.04687,0.0359 -0.15088,0.04645 -0.21973,0.0611c-0.4248,-3.1402 0.30176,-10.17359 0.2666,-13.84158z" fill="#0a452e"/><path d="M194.77295,79.92701c2.53857,-1.75685 12.32959,-5.68594 15.43652,-6.52129c-0.0542,4.33995 0.06445,10.29873 -2.28076,14.09243c-0.7749,1.8685 -2.58252,4.21951 -4.13525,5.41516c0.10693,-0.3562 0.22119,-0.50097 0.37061,-0.81718c0.03223,-0.06564 0.17578,-0.52764 0.17139,-0.53599c-0.79102,-1.70879 -1.46924,-3.52454 -2.23389,-5.2408c-0.25488,-0.57453 -0.39844,-1.05762 -0.86572,-1.23961l-0.36914,0.33012l-0.17578,-0.02989c-0.5625,-1.42658 -0.62842,-1.8222 -0.70166,-3.36409c-0.11279,0.54889 -0.16699,1.14583 -0.70459,1.35624c0.01318,-0.24397 0.46729,-1.52284 0.57422,-1.83993c-0.85693,-0.17598 -6.36475,0.07722 -7.99072,-0.03429c0.97266,-0.51606 1.94092,-1.03975 2.90479,-1.57091z" fill="url(#color-46)"/><path d="M199.47363,80.07075c0.43799,-0.49643 1.31396,-1.30276 1.99951,-1.37852c1.12939,0.56984 4.82959,8.07285 6.05566,9.12286l0.12744,-0.37144l0.27246,0.05451c-0.7749,1.8685 -2.58252,4.21951 -4.13525,5.41516c0.10693,-0.3562 0.22119,-0.50097 0.37061,-0.81718c0.03223,-0.06564 0.17578,-0.52764 0.17139,-0.53599c-0.79102,-1.70879 -1.46924,-3.52454 -2.23389,-5.2408c-0.25488,-0.57453 -0.39844,-1.05762 -0.86572,-1.23961l-0.36914,0.33012l-0.17578,-0.02989c-0.5625,-1.42658 -0.62842,-1.8222 -0.70166,-3.36409c-0.11279,0.54889 -0.16699,1.14583 -0.70459,1.35624c0.01318,-0.24397 0.46729,-1.52284 0.57422,-1.83993l0.41748,-0.02359l0.05713,-0.42961c-0.38525,-0.77205 -0.16553,-0.54889 -0.85986,-1.00825z" fill="url(#color-47)"/><path d="M191.86816,81.49792c0.97266,-0.51606 1.94092,-1.03975 2.90479,-1.57091c0.31787,0.44793 0.43506,0.79827 1.01074,0.86729c1.20996,0.14506 2.47998,-0.63446 3.68994,-0.72355c0.69434,0.45936 0.47461,0.2362 0.85986,1.00825l-0.05713,0.42961l-0.41748,0.02359c-0.85693,-0.17598 -6.36475,0.07722 -7.99072,-0.03429z" fill="#d4a956"/><path d="M109.71387,48.80591c3.97192,1.37383 8.42124,5.98324 12.24697,7.79152c0.55049,0.24909 1.10391,0.49159 1.66011,0.7275c-0.06577,0.86099 -0.15352,1.77868 -0.17886,2.63732c-0.00952,0.55475 -0.06665,1.75201 0.03604,2.24229c-0.02168,1.78088 0.00352,3.82492 -0.07588,5.58279c-0.78296,-0.28704 -2.45347,-0.19649 -3.41646,-0.23576l-0.47476,0.00777c-0.63545,0.28499 -4.51392,1.278 -5.13032,1.19301l-0.37178,0.08792l0.10166,0.29833l-0.27334,-0.07033c-0.10547,-1.56153 -0.04878,-3.73978 -0.04893,-5.34087c-0.00264,-3.29508 0.01553,-6.59001 0.05464,-9.88479l-0.06958,-0.09202c-0.38042,-0.76487 -0.21196,-1.2188 -0.43813,-1.93502c-0.47549,-1.50555 -2.36455,-2.11657 -3.78105,-2.79601z" fill="#0b5435"/><path d="M109.71387,48.80591c3.97192,1.37383 8.42124,5.98324 12.24697,7.79152c0.55049,0.24909 1.10391,0.49159 1.66011,0.7275c-0.06577,0.86099 -0.15352,1.77868 -0.17886,2.63732c-0.00952,0.55475 -0.06665,1.75201 0.03604,2.24229c-0.02168,1.78088 0.00352,3.82492 -0.07588,5.58279c-0.78296,-0.28704 -2.45347,-0.19649 -3.41646,-0.23576l0.9208,-0.34111c-0.0917,-0.64032 0.09331,-3.08232 0.10107,-3.94697c-0.21313,-2.3346 0.26851,-4.31798 -1.45679,-6.02412l-0.08555,-0.05026c-0.3085,0.45218 -0.43813,0.57468 -0.42187,1.12224c-0.08437,-0.57805 -0.15967,-1.45823 -0.49585,-1.92975c-0.33105,-0.46434 -1.13511,-0.84414 -1.63594,-0.45511l-0.09697,-0.02257c-0.09565,-0.53995 -0.20464,-1.00517 -0.33516,-1.53794l-0.14766,-0.06682c-0.1314,0.34126 -0.18955,0.60369 -0.27378,0.95432l-0.29575,0.16426l-0.20391,-0.02344l0.06899,0.70127l-0.06533,0.38463c-0.32432,-0.5313 -0.64292,-0.52617 -1.29902,-0.71197l-0.06416,-1.30423c-0.06753,-0.27635 -0.12217,-0.56574 -0.1793,-0.84516l-0.17666,0.22375l-0.06958,-0.09202c-0.38042,-0.76487 -0.21196,-1.2188 -0.43813,-1.93502c-0.47549,-1.50555 -2.36455,-2.11657 -3.78105,-2.79601z" fill="url(#color-48)"/><path d="M121.26226,63.16912c-0.02183,-1.11228 -0.30571,-3.28511 0.33706,-4.00148c0.56968,0.01832 0.82002,0.29452 1.35879,0.62391l0.19907,-0.14433l0.03472,-0.55812c0.15483,0.34771 0.17666,0.4979 0.2502,0.87315c-0.00952,0.55475 -0.06665,1.75201 0.03604,2.24229c-0.02168,1.78088 0.00352,3.82492 -0.07588,5.58279c-0.78296,-0.28704 -2.45347,-0.19649 -3.41646,-0.23576l0.9208,-0.34111c-0.0917,-0.64032 0.09331,-3.08232 0.10107,-3.94697z" fill="#0a452e"/><path d="M121.00767,63.26349l0.25459,-0.09436c0.01421,0.75168 0.15073,3.53919 -0.19321,3.98771l-0.16245,0.05363c-0.0917,-0.64032 0.09331,-3.08232 0.10107,-3.94697z" fill="#0b5536"/><path d="M113.77339,53.75058c0.01582,-0.41467 -0.01582,-1.0144 0.18838,-1.33427c0.53496,1.35126 0.3353,0.92824 1.41973,1.79949c0.14692,0.1181 0.07134,0.82025 0.38086,1.20195l-0.20391,-0.02344l0.06899,0.70127l-0.06533,0.38463c-0.32432,-0.5313 -0.64292,-0.52617 -1.29902,-0.71197l-0.06416,-1.30423c-0.06753,-0.27635 -0.12217,-0.56574 -0.1793,-0.84516l-0.17666,0.22375z" fill="#0a452e"/><path d="M114.19893,54.46401c0.61904,0.20777 0.998,0.33804 1.35952,0.93029l0.06899,0.70127l-0.06533,0.38463c-0.32432,-0.5313 -0.64292,-0.52617 -1.29902,-0.71197z" fill="#0b5536"/><path d="M113.84297,53.8426l0.17666,-0.22375c0.05713,0.27943 0.11177,0.56881 0.1793,0.84516l0.06416,1.30423c0.6561,0.18579 0.97471,0.18067 1.29902,0.71197c0.08379,1.78117 0.22119,10.4813 -0.35918,11.70289c-0.32988,0.26521 -0.4522,0.35679 -0.82222,0.56925l-0.37178,0.08792l0.10166,0.29833l-0.27334,-0.07033c-0.10547,-1.56153 -0.04878,-3.73978 -0.04893,-5.34087c-0.00264,-3.29508 0.01553,-6.59001 0.05464,-9.88479z" fill="#167046"/><path d="M113.84297,53.8426l0.17666,-0.22375c0.05713,0.27943 0.11177,0.56881 0.1793,0.84516l0.06416,1.30423c0.12964,2.61285 0.27319,10.74226 -0.25415,13.07203l0.10166,0.29833l-0.27334,-0.07033c-0.10547,-1.56153 -0.04878,-3.73978 -0.04893,-5.34087c-0.00264,-3.29508 0.01553,-6.59001 0.05464,-9.88479z" fill="#27895a"/><path d="M115.76235,55.41775l0.29575,-0.16426c0.08423,-0.35064 0.14238,-0.61306 0.27378,-0.95432l0.14766,0.06682c0.13052,0.53277 0.2395,0.99799 0.33516,1.53794l0.09697,0.02257c0.50083,-0.38903 1.30488,-0.00923 1.63594,0.45511c0.33618,0.47152 0.41147,1.3517 0.49585,1.92975l-0.1916,0.29452c0.28066,1.63875 0.55005,7.11061 -0.32256,8.65383c-0.10181,0.18008 -0.33325,0.17012 -0.58228,0.22345l-0.19995,-0.64266l-0.25942,0.05744c-0.23687,-0.32587 -0.15439,-1.99818 -0.14575,-2.51395c0.07881,-2.33431 0.06255,-4.19152 -0.11396,-6.50297c-0.01758,-0.76501 -0.4957,-1.78864 -0.92139,-2.43043l-0.14238,-0.00659c-0.29019,0.26419 -0.34702,0.31034 -0.53672,0.6516l-0.06899,-0.70127z" fill="#167046"/><path d="M115.76235,55.41775l0.29575,-0.16426c0.08423,-0.35064 0.14238,-0.61306 0.27378,-0.95432l0.14766,0.06682c0.13052,0.53277 0.2395,0.99799 0.33516,1.53794l0.09697,0.02257c0.50083,-0.38903 1.30488,-0.00923 1.63594,0.45511c0.33618,0.47152 0.41147,1.3517 0.49585,1.92975l-0.1916,0.29452c-0.26147,-0.19415 -0.58755,-0.45218 -0.85283,-0.62611c-0.26118,1.07111 -0.3271,7.46008 -0.25195,8.86072l-0.25942,0.05744c-0.23687,-0.32587 -0.15439,-1.99818 -0.14575,-2.51395c0.07881,-2.33431 0.06255,-4.19152 -0.11396,-6.50297c-0.01758,-0.76501 -0.4957,-1.78864 -0.92139,-2.43043l-0.14238,-0.00659c-0.29019,0.26419 -0.34702,0.31034 -0.53672,0.6516l-0.06899,-0.70127z" fill="#0b5536"/><path d="M115.82563,67.93488l-0.11733,-0.14491c0.50903,-2.7396 -0.00234,-8.09864 0.42642,-11.02345c0.19102,0.0781 0.62461,0.71944 1.00122,1.03755l0.09199,0.07693c0.17651,2.31145 0.19277,4.16867 0.11396,6.50297c-0.00864,0.51577 -0.09111,2.18807 0.14575,2.51395l0.25942,-0.05744l0.19995,0.64266c-0.68115,0.19327 -1.41987,0.30419 -2.12139,0.45174z" fill="#167046"/><path d="M115.82563,67.93488c0.65361,-0.59724 1.2917,-2.66106 1.51626,-3.55091c-0.00864,0.51577 -0.09111,2.18807 0.14575,2.51395l0.25942,-0.05744l0.19995,0.64266c-0.68115,0.19327 -1.41987,0.30419 -2.12139,0.45174z" fill="#136640"/><path d="M32.08799,55.34375c4.35161,4.44619 9.95815,4.70334 15.57275,5.33838l-0.02988,0.12616l-0.50654,0.0359c-0.57598,1.09001 -1.12192,5.13735 -1.64839,6.48846c-0.31523,0.80926 -0.33091,3.20291 -0.63647,3.71883c-7.00444,-2.59278 -10.88848,-8.75918 -12.75146,-15.70774z" fill="url(#color-49)"/><path d="M188.81104,72.69976c3.10986,0.04015 6.21973,0.05143 9.32959,0.03399c3.98584,0.01963 8.75977,-0.07473 12.7002,0.12147l-1.97314,0.55826c-1.01953,0.73849 -2.21484,1.04165 -3.44238,1.27566c-0.53174,0.1077 -3.91992,1.39859 -4.62158,1.67758c-3.49365,1.48328 -7.03711,2.52201 -10.27734,4.54333c-0.45703,0.28558 -0.84668,0.51387 -1.37695,0.64398l-0.18164,-0.08836c-0.12744,-0.45584 -0.06885,-0.64779 0.00586,-1.1029c-0.22412,-2.19628 -0.16113,-5.39582 -0.1626,-7.66302z" fill="#136640"/><path d="M189.14795,76.8c0.03223,-0.34346 0.13037,-1.50599 0.31934,-1.53296c1.76953,-0.25129 10.30957,-0.56193 11.49609,-0.44515l1.08252,0.07473c-0.11719,-0.00044 -0.05713,0.0041 -0.17871,-0.01509l-0.05127,0.28148c-1.02393,0.19913 -5.72754,0.67431 -6.0542,1.10759c1.00781,-0.0485 4.42822,-0.4195 5.04199,0.09612c-3.49365,1.48328 -7.03711,2.52201 -10.27734,4.54333c-0.45703,0.28558 -0.84668,0.51387 -1.37695,0.64398l-0.18164,-0.08836c-0.12744,-0.45584 -0.06885,-0.64779 0.00586,-1.1029c0.30322,-0.7675 0.0542,-1.98792 0.17432,-2.9821l0.33984,-0.21759l-0.38672,-0.10081z" fill="#167046"/><path d="M188.81104,72.69976c3.10986,0.04015 6.21973,0.05143 9.32959,0.03399l0.67236,0.21569c-0.20654,0.22257 -3.63721,0.05363 -4.29932,0.15796l-0.06006,0.13158l0.19336,0.07531l-0.104,0.01846c-1.46191,0.2466 -4.12793,-0.31371 -5.05078,0.43445c-0.19482,0.4954 -0.20508,0.31781 -0.05273,0.7127c0.48779,0.11107 4.22607,0.13246 4.85742,0.07444c1.16162,0.00322 6.03809,-0.27518 6.6665,0.26756c-1.18652,-0.11678 -9.72656,0.19385 -11.49609,0.44515c-0.18896,0.02696 -0.28711,1.1895 -0.31934,1.53296l-0.04687,0.26228l0.38672,0.10081l-0.33984,0.21759c-0.12012,0.99418 0.12891,2.21459 -0.17432,2.9821c-0.22412,-2.19628 -0.16113,-5.39582 -0.1626,-7.66302z" fill="#27895a"/><path d="M198.14063,72.73375c3.98584,0.01963 8.75977,-0.07473 12.7002,0.12147l-1.97314,0.55826c-1.12207,-0.21026 -4.07373,-0.15444 -5.3042,-0.15048l-8.9165,0.05128l-0.19336,-0.07531l0.06006,-0.13158c0.66211,-0.10433 4.09277,0.06462 4.29932,-0.15796z" fill="#1e7e50"/><path d="M42.42261,73.81087c1.06948,0.1222 2.48687,0.74699 3.57437,1.02202c6.78618,1.71567 13.65937,-0.0655 20.28223,2.49739l-0.21577,-0.0044c0.18867,0.1307 0.38716,0.24748 0.58315,0.36749c-0.19702,0.17246 -0.40972,0.21832 -0.66987,0.13085c-2.02603,-0.68135 -4.82725,-1.44533 -6.99346,-1.26672c0.26587,0.31342 0.16655,0.34741 0.13652,0.86128c-0.19116,1.33866 -0.9854,3.74726 -1.45459,5.12753c0.20391,0.14653 3.20771,0.84707 3.7897,1.04136c-0.10811,0.02594 -0.16802,0.03883 -0.27891,0.01656c-7.16748,-1.44328 -14.35488,-3.72323 -18.75337,-9.79336z" fill="#1e7e50"/></g></svg></svg>