<svg xmlns="http://www.w3.org/2000/svg" width="800" height="800" viewBox="0 0 20 20"><g id="user-circle-2" transform="translate(-2 -2)"><path id="secondary" fill="#2ca9bc" d="M12 3a9 9 0 0 0-6.45 15.27 7 7 0 0 1 4.28-3.92 4 4 0 1 1 4.34 0 7 7 0 0 1 4.28 3.92A9 9 0 0 0 12 3"/><path id="primary" fill="none" stroke="#000" stroke-linecap="round" stroke-linejoin="round" stroke-width="2" d="M16 11a4 4 0 1 1-4-4 4 4 0 0 1 4 4m-1.83 3.35a3.95 3.95 0 0 1-4.34 0 7 7 0 0 0-4.28 3.92 9 9 0 0 0 12.81.09l.09-.09a7 7 0 0 0-4.28-3.92M21 12a9 9 0 0 0-9-9h0a9 9 0 0 0-9 9h0a9 9 0 0 0 9 9h0a9 9 0 0 0 9-9"/></g></svg>